<?xml version="1.0" standalone="no"?>
<!DOCTYPE svg PUBLIC "-//W3C//DTD SVG 20010904//EN"
 "http://www.w3.org/TR/2001/REC-SVG-20010904/DTD/svg10.dtd">
<svg version="1.0" xmlns="http://www.w3.org/2000/svg"
 width="1280.000000pt" height="940.000000pt" viewBox="0 0 1280.000000 940.000000"
 preserveAspectRatio="xMidYMid meet">
<metadata>
Created by potrace 1.15, written by Peter Selinger 2001-2017
</metadata>
<g transform="translate(0.000000,940.000000) scale(0.100000,-0.100000)"
fill="#000000" stroke="none">
<path d="M2682 8006 c-1437 -761 -2615 -1386 -2618 -1389 -3 -3 6 -28 20 -56
l26 -50 0 -3245 0 -3245 93 -3 c50 -2 1694 -1 3651 2 l3559 5 -2 73 c-1 39 0
72 3 72 3 0 24 -36 46 -80 l40 -81 43 25 c23 13 1199 635 2612 1381 1414 747
2574 1361 2578 1365 5 4 -9 41 -30 81 l-38 74 -2 3215 -2 3215 -72 3 c-40 2
-79 7 -85 13 -8 7 -14 7 -19 -1 -4 -7 -1094 -10 -3566 -10 l-3559 0 0 -47 -1
-48 -30 58 c-16 31 -30 57 -32 56 -1 0 -1178 -623 -2615 -1383z m2678 -106 l0
-1280 -2422 0 -2423 1 75 39 c1167 620 4757 2518 4763 2519 4 1 7 -575 7
-1279z m6670 1240 c-19 -10 -1099 -581 -2400 -1269 l-2365 -1251 -847 0 -848
0 0 1270 0 1270 3248 0 c3181 -1 3246 -1 3212 -20z m423 -3087 l-3 -3068
-2517 0 -2518 0 0 1739 0 1738 2510 1329 c1381 730 2515 1328 2520 1328 7 1 9
-1026 8 -3066z m-7095 -1385 l-3 -1743 -2510 -1327 c-1380 -730 -2513 -1328
-2517 -1328 -5 0 -8 1381 -8 3070 l0 3070 2520 0 2520 0 -2 -1742z m1842 27
l0 -1710 -815 -3 -815 -2 0 1715 0 1715 815 -2 815 -3 0 -1710z m3 -3192 l-3
-1268 -3242 -3 c-1783 -1 -3238 1 -3235 4 4 4 1081 575 2394 1270 l2388 1263
850 1 850 0 -2 -1267z m5047 1258 c-68 -40 -4825 -2551 -4831 -2551 -5 0 -9
574 -9 1280 l0 1280 2428 0 c1378 0 2421 -4 2412 -9z"/>
</g>
</svg>
