<svg version="1.1" xmlns="http://www.w3.org/2000/svg" xmlns:xlink="http://www.w3.org/1999/xlink" width="342" height="196"><defs><clipPath id="VqAcHEQULHSL"><path fill="none" stroke="none" d=" M 0 0 L 777 0 L 777 503 L 0 503 L 0 0 Z"/></clipPath></defs><g transform="scale(1,1)" clip-path="url(#VqAcHEQULHSL)"><g><path fill="rgb(0,0,0)" stroke="none" paint-order="stroke fill markers" fill-rule="evenodd" d=" M 25.471878922291893 18.27335135230527 L 21.049584850816927 34.777577513060415 L 25.471878922291893 29.664306165859102 L 29.89417299376683 34.777577513060415 Z" fill-opacity="1"/><path fill="none" stroke="rgb(0,0,0)" paint-order="fill stroke markers" d=" M 25.471878922291893 18.27335135230527 L 21.049584850816927 34.777577513060415 L 25.471878922291893 29.664306165859102 L 29.89417299376683 34.777577513060415 Z" stroke-opacity="0.6980392156862745" stroke-linecap="round" stroke-linejoin="round" stroke-miterlimit="10" stroke-width="2.5"/><path fill="rgb(0,0,0)" stroke="none" paint-order="stroke fill markers" fill-rule="evenodd" d=" M 138.8161156371682 137.85152108649976 L 122.33420696934111 133.34676219335523 L 127.42530320787981 137.7945670243533 L 122.28998458140275 142.1912397810263 Z" fill-opacity="1"/><path fill="none" stroke="rgb(0,0,0)" paint-order="fill stroke markers" d=" M 138.8161156371682 137.85152108649976 L 122.33420696934111 133.34676219335523 L 127.42530320787981 137.7945670243533 L 122.28998458140275 142.1912397810263 Z" stroke-opacity="0.6980392156862745" stroke-linecap="round" stroke-linejoin="round" stroke-miterlimit="10" stroke-width="2.5"/><path fill="rgb(0,0,0)" stroke="none" paint-order="stroke fill markers" fill-rule="evenodd" d=" M 326.40082740028856 138.41824227007413 L 309.8966012395333 133.99594819859917 L 315.0098725867347 138.41824227007413 L 309.8966012395333 142.8405363415491 Z" fill-opacity="1"/><path fill="none" stroke="rgb(0,0,0)" paint-order="fill stroke markers" d=" M 326.40082740028856 138.41824227007413 L 309.8966012395333 133.99594819859917 L 315.0098725867347 138.41824227007413 L 309.8966012395333 142.8405363415491 Z" stroke-opacity="0.6980392156862745" stroke-linecap="round" stroke-linejoin="round" stroke-miterlimit="10" stroke-width="2.5"/><path fill="rgb(0,0,0)" stroke="none" paint-order="stroke fill markers" fill-rule="evenodd" d=" M 214.75675423613535 18.27335135230527 L 210.33446016466036 34.77757751306052 L 214.75675423613535 29.664306165859173 L 219.17904830761032 34.77757751306052 Z" fill-opacity="1"/><path fill="none" stroke="rgb(0,0,0)" paint-order="fill stroke markers" d=" M 214.75675423613535 18.27335135230527 L 210.33446016466036 34.77757751306052 L 214.75675423613535 29.664306165859173 L 219.17904830761032 34.77757751306052 Z" stroke-opacity="0.6980392156862745" stroke-linecap="round" stroke-linejoin="round" stroke-miterlimit="10" stroke-width="2.5"/><path fill="none" stroke="rgb(153,204,0)" paint-order="fill stroke markers" d=" M 214.75675423613535 138.41824227007413 L 215.12787809226725 137.9094591957824 L 215.49742810722165 137.40143709964246 L 215.86540428099852 136.89417598165429 L 216.23180661359785 136.38767584181787 L 216.59663510501966 135.88193668013324 L 216.95988975526396 135.3769584966004 L 217.3215705643307 134.87274129121928 L 217.6816775322199 134.36928506399 L 218.0402106589316 133.86658981491243 L 218.39716994446576 133.36465554398666 L 218.7525553888224 132.86348225121264 L 219.1063669920015 132.36306993659042 L 219.80926867482714 131.36452824180128 L 220.50587499294264 130.36903045961924 L 221.19618594634804 129.3765765900443 L 221.8802015350433 128.38716663307642 L 222.5579217590285 127.40080058871564 L 223.2293466183035 126.41747845696194 L 223.89447611286846 125.43720023781533 L 224.55331024272326 124.4599659312758 L 225.20584900786795 123.48577553734339 L 225.85209240830252 122.51462905601805 L 226.492040444027 121.5465264872998 L 227.12569311504134 120.58146783118865 L 227.7530504213456 119.61945308768458 L 228.37411236293968 118.66048225678759 L 228.9888789398237 117.7045553384977 L 229.59735015199757 116.7516723328149 L 230.19952599946134 115.80183323973918 L 230.79540648221501 114.85503805927056 L 231.38499160025856 113.91128679140901 L 231.96828135359198 112.97057943615457 L 232.54527574221527 112.0329159935072 L 233.11597476612846 111.09829646346694 L 233.68037842533155 110.16672084603375 L 234.2384867198245 109.23818914120767 L 234.79029964960733 108.31270134898867 L 235.33581721468008 107.39025746937675 L 235.8750394150427 106.47085750237193 L 236.40796625069518 105.55450144797419 L 236.93459772163757 104.64118930618353 L 237.45493382786984 103.73092107699998 L 237.96897456939197 102.82369676042352 L 238.476719946204 101.91951635645412 L 238.97816995830593 101.01837986509184 L 239.47332460569774 100.12028728633663 L 239.9621838883794 99.22523862018852 L 240.444747806351 98.3332338666475 L 240.92101635961245 97.44427302571357 L 241.39098954816376 96.55835609738672 L 241.854667372005 95.67548308166695 L 242.3120498311361 94.79565397855428 L 242.7631369255571 93.91886878804871 L 243.20792865526798 93.04512751015021 L 243.64642502026874 92.17443014485882 L 244.07862602055937 91.30677669217451 L 244.5045316561399 90.44216715209728 L 244.9241419270103 89.58060152462714 L 245.33745683317062 88.7220798097641 L 245.74447637462077 87.86660200750813 L 246.14520055136086 87.01416811785927 L 246.53962936339082 86.1647781408175 L 246.92776281071062 85.3184320763828 L 247.30960089332035 84.4751299245552 L 247.68514361121993 83.63487168533469 L 248.05439096440944 82.79765735872127 L 248.4173429528888 81.96348694471493 L 248.77399957665807 81.13236044331569 L 249.1243608357172 80.30427785452353 L 249.4684267300662 79.47923917833846 L 249.80619725970513 78.65724441476048 L 250.1376724246339 77.83829356378959 L 250.46285222485258 77.0223866254258 L 250.78173666036116 76.20952359966908 L 251.09432573115959 75.39970448651945 L 251.40061943724794 74.59292928597692 L 251.7006177786261 73.78919799804149 L 251.9943207552942 72.98851062271312 L 252.28172836725219 72.19086715999185 L 252.5628406145001 71.39626760987768 L 252.8376574970378 70.6047119723706 L 253.10617901486546 69.81620024747059 L 253.36840516798298 69.03073243517768 L 253.62433595639038 68.24830853549186 L 253.87397138008765 67.46892854841313 L 254.11731143907483 66.69259247394149 L 254.35435613335187 65.91930031207693 L 254.58510546291882 65.14905206281946 L 254.80955942777564 64.38184772616908 L 255.02771802792233 63.617687302125795 L 255.2395812633589 62.856570790689595 L 255.4451491340854 62.098498191860486 L 255.64442164010177 61.34346950563847 L 255.837398781408 60.59148473202353 L 256.02408055800413 59.84254387101569 L 256.2044669698901 59.09664692261494 L 256.37855801706604 58.353793886821265 L 256.54635369953183 57.61398476363469 L 256.70785401728745 56.8772195530552 L 256.86305897033304 56.143498255082804 L 257.01196855866846 55.41282086971749 L 257.1545827822938 54.68518739695927 L 257.29090164120896 53.96059783680815 L 257.42092513541405 53.2390521892641 L 257.544653264909 52.52055045432715 L 257.66208602969385 51.80509263199728 L 257.7732234297686 51.092678722274506 L 257.8780654651332 50.38330872515883 L 257.9766121357877 49.67698264065022 L 258.0688634417321 48.97370046874871 L 258.15481938296637 48.273462209454294 L 258.23447995949056 47.57626786276697 L 258.3078451713046 46.88211742868672 L 258.3749150184085 46.19101090721357 L 258.43568950080237 45.502948298347505 L 258.490168618486 44.817929602088526 L 258.5383523714596 44.135954818436645 L 258.5802407597231 43.457023947391846 L 258.6158337832764 42.78113698895414 L 258.64513144211963 42.10829394312351 L 258.6681337362528 41.43849480989998 L 258.6848406656758 40.77173958928354 L 258.69525223038863 40.10802828127419 L 258.6993684303914 39.44736088587193 L 258.6971892656841 38.78973740307675 L 258.6887147362666 38.135157832888666 L 258.673944842139 37.48362217530767 L 258.65287958330134 36.83513043033376 L 258.62551895975355 36.18968259796694 L 258.5918629714956 35.54727867820721 L 258.5519116185276 34.907918671054574 L 258.5056649008494 34.271602576509025 L 258.4531228184611 33.63833039457056 L 258.39428537136274 33.00810212523918" stroke-opacity="1" stroke-linecap="round" stroke-linejoin="round" stroke-miterlimit="10" stroke-width="1.5"/><path fill="none" stroke="rgb(255,127,0)" paint-order="fill stroke markers" d=" M 214.75675423613535 138.41824227007413 L 214.8684277799079 138.05995992025336 L 215.0976897430873 137.3454706155712 L 215.3348382071123 136.63374850416824 L 215.579873171983 135.92479358604442 L 215.8327946376993 135.21860586119976 L 216.09360260426124 134.5151853296343 L 216.36229707166882 133.81453199134802 L 216.63887803992202 133.1166458463409 L 216.9233455090209 132.42152689461295 L 217.21569947896538 131.72917513616414 L 217.51593994975553 131.03959057099456 L 217.8240669213913 130.35277319910412 L 218.14008039387272 129.66872302049285 L 218.46398036719978 128.98744003516074 L 218.79576684137248 128.3089242431078 L 219.1354398163908 127.63317564433407 L 219.4829992922548 126.9601942388395 L 219.8384452689644 126.2899800266241 L 220.20177774651967 125.62253300768786 L 220.57299672492056 124.95785318203079 L 220.9521022041671 124.29594054965291 L 221.33909418425927 123.63679511055419 L 221.7339726651971 122.98041686473465 L 222.13673764698052 122.32680581219427 L 222.54738912960963 121.67596195293306 L 222.96592711308435 121.02788528695103 L 223.39235159740474 120.38257581424818 L 223.82666258257075 119.74003353482448 L 224.2688600685824 119.10025844867997 L 224.7189440554397 118.46325055581462 L 225.1769145431426 117.82900985622845 L 225.64277153169118 117.19753634992145 L 226.11651502108538 116.56883003689362 L 226.59814501132524 115.94289091714496 L 227.08766150241073 115.31971899067547 L 227.58506449434185 114.69931425748516 L 228.09035398711862 114.08167671757403 L 228.60352998074103 113.46680637094204 L 229.12459247520908 112.85470321758925 L 229.65354147052278 112.24536725751562 L 230.1903769666821 111.63879849072117 L 230.73509896368705 111.03499691720589 L 231.28770746153765 110.43396253696977 L 231.84820246023392 109.83569535001283 L 232.41658395977578 109.24019535633508 L 232.9928519601633 108.64746255593647 L 233.57700646139648 108.05749694881705 L 234.1690474634753 107.47029853497679 L 234.76897496639972 106.88586731441572 L 235.3767889701698 106.3042032871338 L 235.99248947478554 105.72530645313107 L 236.6160764802469 105.1491768124075 L 237.2475499865539 104.57581436496311 L 237.88690999370652 104.00521911079788 L 238.5341565017048 103.43739104991184 L 239.18928951054875 102.87233018230495 L 239.8523090202383 102.31003650797724 L 240.52321503077349 101.75051002692871 L 241.20200754215432 101.19375073915936 L 241.88868655438083 100.63975864466917 L 242.58325206745295 100.08853374345814 L 243.28570408137068 99.5400760355263 L 243.9960425961341 98.99438552087362 L 244.71426761174314 98.45146219950011 L 245.4403791281978 97.91130607140579 L 246.1743771454981 97.37391713659062 L 246.91626166364406 96.83929539505463 L 247.66603268263566 96.30744084679782 L 248.4236902024729 95.77835349182017 L 249.18923422315578 95.25203333012169 L 249.9626647446843 94.7284803617024 L 250.74398176705844 94.20769458656227 L 251.53318529027823 93.68967600470131 L 252.33027531434368 93.17442461611952 L 253.13525183925475 92.6619404208169 L 253.94811486501146 92.15222341879345 L 254.76886439161382 91.64527361004919 L 255.59750041906182 91.14109099458409 L 256.4340229473554 90.63967557239816 L 257.2784319764947 90.1410273434914 L 258.1307275064796 89.64514630786383 L 258.99090953731013 89.15203246551542 L 259.85897806898635 88.66168581644618 L 260.7349331015082 88.17410636065611 L 261.61877463487565 87.68929409814521 L 262.51050266908874 87.20724902891348 L 263.41011720414747 86.72797115296093 L 264.3176182400519 86.25146047028755 L 265.2330057768019 85.77771698089335 L 266.1562798143976 85.3067406847783 L 267.0874403528389 84.83853158194243 L 268.02648739212583 84.37308967238575 L 268.9734209322584 83.91041495610823 L 269.92824097323665 83.45050743310986 L 270.8909475150605 82.9933671033907 L 271.86154055773 82.53899396695068 L 272.84002010124516 82.08738802378984 L 273.82638614560597 81.63854927390818 L 274.82063869081236 81.19247771730569 L 275.3207224012327 80.97047963648414 L 275.8227777368644 80.74917335398237 L 276.32680469770753 80.5285588698004 L 276.83280328376213 80.30863618393823 L 277.3407734950281 80.08940529639584 L 277.85071533150546 79.87086620717325 L 278.36262879319423 79.65301891627045 L 278.8765138800944 79.43586342368745 L 279.392370592206 79.21939972942424 L 279.9101989295291 79.0036278334808 L 280.4299988920635 78.7885477358572 L 280.95177047980934 78.57415943655334 L 281.4755136927666 78.36046293556932 L 282.00122853093524 78.14745823290507 L 282.5289149943153 77.93514532856061 L 283.0585730829068 77.72352422253594 L 283.59020279670966 77.51259491483107 L 284.1238041357239 77.302357405446 L 284.65937709994967 77.09281169438071 L 285.1969216893868 76.88395778163523 L 285.73643790403526 76.67579566720953 L 286.2779257438952 76.46832535110363 L 286.82138520896655 76.26154683331751 L 287.3668162992493 76.0554601138512 L 287.9142190147435 75.85006519270466 L 288.463593355449 75.64536206987793 L 289.014939321366 75.441350745371 L 289.5682569124944 75.23803121918385 L 290.1235461288342 75.0354034913165 L 290.68080697038545 74.83346756176893 L 291.2400394371481 74.63222343054116 L 291.8012435291221 74.43167109763318 L 292.36441924630753 74.231810563045 L 292.9295665887044 74.03264182677663 L 293.4966855563126 73.83416488882803 L 294.0657761491323 73.63637974919922 L 294.6368383671634 73.43928640789021 L 295.2098722104059 73.24288486490099 L 295.7848776788598 73.04717512023157 L 296.36185477252513 72.85215717388193 L 296.9408034914019 72.6578310258521 L 297.52172383549 72.46419667614205 L 298.1046158047895 72.2712541247518 L 298.68947939930047 72.07900337168134 L 299.27631461902286 71.88744441693068 L 299.8651214639566 71.6965772604998 L 300.4558999341018 71.50640190238872 L 301.0486500294584 71.31691834259743 L 301.64337175002635 71.12812658112594 L 302.2400650958058 70.94002661797424 L 302.83873006679664 70.75261845314232 L 303.43936666299885 70.5659020866302 L 304.04197488441247 70.37987751843788 L 304.64655473103755 70.19454474856535 L 305.253106202874 70.00990377701262 L 305.86162929992184 69.82595460377968 L 306.47212402218116 69.64269722886652 L 307.0845903696518 69.46013165227316 L 307.6990283423339 69.27825787399959" stroke-opacity="1" stroke-linecap="round" stroke-linejoin="round" stroke-miterlimit="10" stroke-width="1.5"/><path fill="none" stroke="rgb(0,0,0)" paint-order="fill stroke markers" d=" M 25.471878922291893 137.28479990292539 L 25.471878922291893 18.27335135230527" stroke-opacity="1" stroke-linecap="round" stroke-linejoin="round" stroke-miterlimit="10" stroke-width="1.5"/><path fill="none" stroke="rgb(0,0,0)" paint-order="fill stroke markers" d=" M 25.471878922291893 137.28479990292539 L 138.8161156371682 137.85152108649976" stroke-opacity="1" stroke-linecap="round" stroke-linejoin="round" stroke-miterlimit="10" stroke-width="1.5"/><path fill="none" stroke="rgb(0,0,0)" paint-order="fill stroke markers" d=" M 214.75675423613535 138.41824227007413 L 326.40082740028856 138.41824227007413" stroke-opacity="1" stroke-linecap="round" stroke-linejoin="round" stroke-miterlimit="10" stroke-width="1.5"/><path fill="none" stroke="rgb(0,0,0)" paint-order="fill stroke markers" d=" M 214.75675423613535 138.41824227007413 L 214.75675423613535 18.27335135230527" stroke-opacity="1" stroke-linecap="round" stroke-linejoin="round" stroke-miterlimit="10" stroke-width="1.5"/><path fill="none" stroke="rgb(153,204,0)" paint-order="fill stroke markers" d=" M 25.471878922291893 137.28479990292539 L 82.71071846330443 35.8417080431111" stroke-opacity="1" stroke-linecap="round" stroke-linejoin="round" stroke-miterlimit="10" stroke-width="1.5"/><path fill="none" stroke="rgb(255,127,0)" paint-order="fill stroke markers" d=" M 25.471878922291893 137.28479990292539 L 117.2807106613417 68.71153669042522" stroke-opacity="1" stroke-linecap="round" stroke-linejoin="round" stroke-miterlimit="10" stroke-width="1.5"/><path fill="none" stroke="rgb(0,0,0)" paint-order="fill stroke markers" d=" M 214.75675423613535 138.41824227007413 L 266.89510312497845 88.54677811552857" stroke-opacity="1" stroke-linejoin="round" stroke-miterlimit="10" stroke-width="1.5" stroke-dasharray="5.5,4"/><g transform="scale(14,14)"><g transform="translate(2.357142857142857,1.8976177142857142)"><path fill="rgb(0,0,0)" stroke="none" paint-order="stroke fill markers" d=" M 0.374 -0.606 L 0.24 -0.073 Q 0.23600000000000002 -0.059000000000000004 0.23600000000000002 -0.05 Q 0.23600000000000002 -0.037 0.25 -0.034 L 0.251 -0.034 L 0.252 -0.034 Q 0.256 -0.033 0.261 -0.033 Q 0.281 -0.031 0.304 -0.031 Q 0.331 -0.031 0.333 -0.024 Q 0.334 -0.022 0.334 -0.019 Q 0.334 0 0.314 0 L 0.181 -0.003 L 0.18 -0.003 L 0.05 0 L 0.049 0 Q 0.034 0 0.034 -0.011 Q 0.034 -0.028 0.048 -0.03 Q 0.053 -0.031 0.066 -0.031 Q 0.133 -0.031 0.146 -0.048 Q 0.151 -0.055 0.157 -0.078 L 0.292 -0.617 Q 0.294 -0.626 0.294 -0.633 Q 0.294 -0.651 0.252 -0.652 L 0.251 -0.652 L 0.225 -0.652 Q 0.199 -0.652 0.197 -0.663 Q 0.197 -0.683 0.217 -0.683 L 0.34900000000000003 -0.68 L 0.35000000000000003 -0.68 L 0.481 -0.683 L 0.482 -0.683 Q 0.497 -0.683 0.497 -0.671 Q 0.497 -0.654 0.483 -0.653 Q 0.47800000000000004 -0.652 0.465 -0.652 Q 0.398 -0.652 0.385 -0.636 Q 0.38 -0.629 0.374 -0.606 Z"/></g></g><g transform="scale(14,14)"><g transform="translate(16,1.8261891428571428)"><path fill="rgb(0,0,0)" stroke="none" paint-order="stroke fill markers" d=" M 0.374 -0.606 L 0.24 -0.073 Q 0.23600000000000002 -0.059000000000000004 0.23600000000000002 -0.05 Q 0.23600000000000002 -0.037 0.25 -0.034 L 0.251 -0.034 L 0.252 -0.034 Q 0.256 -0.033 0.261 -0.033 Q 0.281 -0.031 0.304 -0.031 Q 0.331 -0.031 0.333 -0.024 Q 0.334 -0.022 0.334 -0.019 Q 0.334 0 0.314 0 L 0.181 -0.003 L 0.18 -0.003 L 0.05 0 L 0.049 0 Q 0.034 0 0.034 -0.011 Q 0.034 -0.028 0.048 -0.03 Q 0.053 -0.031 0.066 -0.031 Q 0.133 -0.031 0.146 -0.048 Q 0.151 -0.055 0.157 -0.078 L 0.292 -0.617 Q 0.294 -0.626 0.294 -0.633 Q 0.294 -0.651 0.252 -0.652 L 0.251 -0.652 L 0.225 -0.652 Q 0.199 -0.652 0.197 -0.663 Q 0.197 -0.683 0.217 -0.683 L 0.34900000000000003 -0.68 L 0.35000000000000003 -0.68 L 0.481 -0.683 L 0.482 -0.683 Q 0.497 -0.683 0.497 -0.671 Q 0.497 -0.654 0.483 -0.653 Q 0.47800000000000004 -0.652 0.465 -0.652 Q 0.398 -0.652 0.385 -0.636 Q 0.38 -0.629 0.374 -0.606 Z"/></g></g><g transform="scale(14,14)"><g transform="translate(1.0714285714285714,10.897617714285714)"><path fill="rgb(0,0,0)" stroke="none" paint-order="stroke fill markers" d=" M 0.74 -0.436 L 0.74 -0.436 Q 0.74 -0.281 0.63 -0.149 Q 0.531 -0.029 0.398 0.009000000000000001 Q 0.35100000000000003 0.022 0.305 0.022 Q 0.18 0.022 0.108 -0.066 Q 0.049 -0.138 0.049 -0.245 Q 0.049 -0.395 0.156 -0.529 Q 0.255 -0.65 0.388 -0.6900000000000001 Q 0.437 -0.705 0.485 -0.705 Q 0.612 -0.705 0.684 -0.613 Q 0.74 -0.541 0.74 -0.436 M 0.311 -0.004 L 0.311 -0.004 Q 0.405 -0.004 0.492 -0.088 Q 0.51 -0.105 0.525 -0.124 Q 0.623 -0.246 0.646 -0.41500000000000004 Q 0.651 -0.448 0.651 -0.47500000000000003 Q 0.651 -0.612 0.559 -0.661 Q 0.558 -0.661 0.557 -0.662 Q 0.521 -0.68 0.47900000000000004 -0.68 Q 0.385 -0.68 0.297 -0.599 Q 0.261 -0.5670000000000001 0.233 -0.524 Q 0.157 -0.40900000000000003 0.14400000000000002 -0.249 Q 0.14200000000000002 -0.231 0.14200000000000002 -0.217 Q 0.14200000000000002 -0.089 0.219 -0.033 Q 0.259 -0.004 0.311 -0.004 Z"/></g></g><g transform="scale(14,14)"><g transform="translate(14.571428571428571,10.826189142857142)"><path fill="rgb(0,0,0)" stroke="none" paint-order="stroke fill markers" d=" M 0.74 -0.436 L 0.74 -0.436 Q 0.74 -0.281 0.63 -0.149 Q 0.531 -0.029 0.398 0.009000000000000001 Q 0.35100000000000003 0.022 0.305 0.022 Q 0.18 0.022 0.108 -0.066 Q 0.049 -0.138 0.049 -0.245 Q 0.049 -0.395 0.156 -0.529 Q 0.255 -0.65 0.388 -0.6900000000000001 Q 0.437 -0.705 0.485 -0.705 Q 0.612 -0.705 0.684 -0.613 Q 0.74 -0.541 0.74 -0.436 M 0.311 -0.004 L 0.311 -0.004 Q 0.405 -0.004 0.492 -0.088 Q 0.51 -0.105 0.525 -0.124 Q 0.623 -0.246 0.646 -0.41500000000000004 Q 0.651 -0.448 0.651 -0.47500000000000003 Q 0.651 -0.612 0.559 -0.661 Q 0.558 -0.661 0.557 -0.662 Q 0.521 -0.68 0.47900000000000004 -0.68 Q 0.385 -0.68 0.297 -0.599 Q 0.261 -0.5670000000000001 0.233 -0.524 Q 0.157 -0.40900000000000003 0.14400000000000002 -0.249 Q 0.14200000000000002 -0.231 0.14200000000000002 -0.217 Q 0.14200000000000002 -0.089 0.219 -0.033 Q 0.259 -0.004 0.311 -0.004 Z"/></g></g><g transform="scale(14,14)"><g transform="translate(23.142857142857142,11.111903428571429)"><path fill="rgb(0,0,0)" stroke="none" paint-order="stroke fill markers" d=" M 0.635 -0.578 L 0.546 -0.223 Q 0.519 -0.114 0.428 -0.041 Q 0.34900000000000003 0.022 0.263 0.022 Q 0.164 0.022 0.108 -0.047 Q 0.067 -0.097 0.067 -0.17 Q 0.067 -0.2 0.074 -0.228 L 0.135 -0.47500000000000003 L 0.157 -0.5630000000000001 Q 0.17400000000000002 -0.628 0.17400000000000002 -0.634 Q 0.17400000000000002 -0.646 0.158 -0.649 L 0.157 -0.649 L 0.156 -0.649 Q 0.153 -0.649 0.147 -0.65 Q 0.13 -0.652 0.109 -0.652 Q 0.083 -0.652 0.081 -0.663 Q 0.081 -0.683 0.1 -0.683 L 0.228 -0.68 L 0.229 -0.68 L 0.356 -0.683 L 0.357 -0.683 Q 0.371 -0.683 0.371 -0.672 Q 0.371 -0.655 0.357 -0.653 L 0.356 -0.653 L 0.356 -0.653 L 0.356 -0.653 L 0.355 -0.652 L 0.337 -0.652 Q 0.276 -0.652 0.264 -0.636 Q 0.259 -0.629 0.253 -0.606 L 0.156 -0.217 Q 0.145 -0.17300000000000001 0.145 -0.139 Q 0.145 -0.05 0.213 -0.02 Q 0.23800000000000002 -0.009000000000000001 0.267 -0.009000000000000001 Q 0.355 -0.009000000000000001 0.431 -0.082 Q 0.494 -0.14300000000000002 0.516 -0.23 L 0.606 -0.587 Q 0.609 -0.596 0.609 -0.608 Q 0.609 -0.651 0.541 -0.652 Q 0.523 -0.652 0.523 -0.663 Q 0.523 -0.683 0.541 -0.683 L 0.644 -0.68 L 0.645 -0.68 L 0.744 -0.683 L 0.747 -0.683 Q 0.76 -0.683 0.76 -0.672 Q 0.76 -0.652 0.743 -0.652 Q 0.664 -0.649 0.643 -0.604 Q 0.639 -0.593 0.635 -0.578 Z"/></g></g><g transform="scale(14,14)"><g transform="translate(9.357142857142858,11.254760571428571)"><path fill="rgb(0,0,0)" stroke="none" paint-order="stroke fill markers" d=" M 0.635 -0.578 L 0.546 -0.223 Q 0.519 -0.114 0.428 -0.041 Q 0.34900000000000003 0.022 0.263 0.022 Q 0.164 0.022 0.108 -0.047 Q 0.067 -0.097 0.067 -0.17 Q 0.067 -0.2 0.074 -0.228 L 0.135 -0.47500000000000003 L 0.157 -0.5630000000000001 Q 0.17400000000000002 -0.628 0.17400000000000002 -0.634 Q 0.17400000000000002 -0.646 0.158 -0.649 L 0.157 -0.649 L 0.156 -0.649 Q 0.153 -0.649 0.147 -0.65 Q 0.13 -0.652 0.109 -0.652 Q 0.083 -0.652 0.081 -0.663 Q 0.081 -0.683 0.1 -0.683 L 0.228 -0.68 L 0.229 -0.68 L 0.356 -0.683 L 0.357 -0.683 Q 0.371 -0.683 0.371 -0.672 Q 0.371 -0.655 0.357 -0.653 L 0.356 -0.653 L 0.356 -0.653 L 0.356 -0.653 L 0.355 -0.652 L 0.337 -0.652 Q 0.276 -0.652 0.264 -0.636 Q 0.259 -0.629 0.253 -0.606 L 0.156 -0.217 Q 0.145 -0.17300000000000001 0.145 -0.139 Q 0.145 -0.05 0.213 -0.02 Q 0.23800000000000002 -0.009000000000000001 0.267 -0.009000000000000001 Q 0.355 -0.009000000000000001 0.431 -0.082 Q 0.494 -0.14300000000000002 0.516 -0.23 L 0.606 -0.587 Q 0.609 -0.596 0.609 -0.608 Q 0.609 -0.651 0.541 -0.652 Q 0.523 -0.652 0.523 -0.663 Q 0.523 -0.683 0.541 -0.683 L 0.644 -0.68 L 0.645 -0.68 L 0.744 -0.683 L 0.747 -0.683 Q 0.76 -0.683 0.76 -0.672 Q 0.76 -0.652 0.743 -0.652 Q 0.664 -0.649 0.643 -0.604 Q 0.639 -0.593 0.635 -0.578 Z"/></g></g><g transform="scale(14,14)"><g transform="translate(6.285714285714286,2.573412142857143)"><path fill="rgb(0,0,0)" stroke="none" paint-order="stroke fill markers" d=" M 0.373 -0.378 Q 0.378 -0.41200000000000003 0.404 -0.42 Q 0.40900000000000003 -0.422 0.41500000000000004 -0.422 Q 0.441 -0.422 0.444 -0.395 Q 0.444 -0.389 0.437 -0.361 L 0.401 -0.221 Q 0.386 -0.158 0.379 -0.131 Q 0.366 -0.079 0.366 -0.057 Q 0.366 -0.011 0.396 -0.011 Q 0.434 -0.011 0.46 -0.091 Q 0.465 -0.108 0.47200000000000003 -0.135 Q 0.48 -0.152 0.486 -0.153 Q 0.498 -0.153 0.498 -0.14300000000000002 Q 0.498 -0.128 0.48 -0.073 Q 0.47400000000000003 -0.056 0.468 -0.044 Q 0.44 0.011 0.394 0.011 Q 0.338 0.011 0.313 -0.037 Q 0.306 -0.049 0.303 -0.064 Q 0.24 0.011 0.17300000000000001 0.011 Q 0.098 0.011 0.062 -0.057 Q 0.04 -0.097 0.04 -0.149 Q 0.04 -0.257 0.115 -0.34900000000000003 Q 0.185 -0.433 0.267 -0.441 Q 0.274 -0.442 0.281 -0.442 Q 0.342 -0.442 0.373 -0.378 M 0.308 -0.11900000000000001 L 0.308 -0.11900000000000001 L 0.358 -0.315 Q 0.361 -0.33 0.361 -0.332 Q 0.361 -0.353 0.343 -0.383 Q 0.321 -0.42 0.28200000000000003 -0.42 Q 0.23 -0.42 0.183 -0.352 Q 0.17400000000000002 -0.339 0.166 -0.324 Q 0.137 -0.266 0.117 -0.159 Q 0.111 -0.125 0.111 -0.105 Q 0.111 -0.037 0.149 -0.017 Q 0.16 -0.011 0.17500000000000002 -0.011 Q 0.231 -0.011 0.28800000000000003 -0.082 Q 0.302 -0.098 0.307 -0.115 L 0.307 -0.116 Q 0.308 -0.11800000000000001 0.308 -0.11900000000000001 Z"/></g></g><g transform="scale(14,14)"><g transform="translate(8.714285714285714,5.337302142857143)"><path fill="rgb(0,0,0)" stroke="none" paint-order="stroke fill markers" d=" M 0.23900000000000002 -0.683 L 0.165 -0.382 Q 0.223 -0.442 0.28200000000000003 -0.442 Q 0.357 -0.442 0.394 -0.373 Q 0.41500000000000004 -0.333 0.41500000000000004 -0.28200000000000003 Q 0.41500000000000004 -0.176 0.341 -0.084 Q 0.272 0.001 0.189 0.01 Q 0.181 0.011 0.17400000000000002 0.011 Q 0.10200000000000001 0.011 0.067 -0.056 Q 0.047 -0.094 0.047 -0.146 Q 0.047 -0.18 0.063 -0.247 L 0.145 -0.5730000000000001 Q 0.159 -0.632 0.159 -0.635 Q 0.159 -0.646 0.145 -0.649 L 0.145 -0.649 Q 0.133 -0.652 0.109 -0.652 Q 0.08700000000000001 -0.652 0.085 -0.664 Q 0.085 -0.681 0.10400000000000001 -0.684 L 0.226 -0.6940000000000001 Q 0.23900000000000002 -0.6940000000000001 0.23900000000000002 -0.683 M 0.145 -0.305 L 0.123 -0.213 Q 0.107 -0.15 0.107 -0.112 Q 0.107 -0.026000000000000002 0.159 -0.013000000000000001 Q 0.166 -0.011 0.17400000000000002 -0.011 Q 0.227 -0.011 0.273 -0.081 Q 0.28300000000000003 -0.096 0.292 -0.114 Q 0.319 -0.171 0.337 -0.268 Q 0.343 -0.303 0.343 -0.326 Q 0.343 -0.406 0.294 -0.418 L 0.293 -0.419 Q 0.28700000000000003 -0.42 0.28 -0.42 Q 0.22 -0.42 0.16 -0.34 Q 0.152 -0.33 0.145 -0.305 Z"/></g></g><g transform="scale(14,14)"><g transform="translate(18.714285714285715,2.7162692857142856)"><path fill="rgb(0,0,0)" stroke="none" paint-order="stroke fill markers" d=" M 0.396 -0.38 L 0.396 -0.38 Q 0.368 -0.41600000000000004 0.31 -0.42 Q 0.245 -0.42 0.192 -0.354 Q 0.179 -0.338 0.169 -0.32 Q 0.129 -0.247 0.117 -0.148 Q 0.115 -0.132 0.115 -0.12 Q 0.115 -0.038 0.171 -0.017 Q 0.185 -0.011 0.20500000000000002 -0.011 Q 0.295 -0.011 0.367 -0.07100000000000001 Q 0.388 -0.088 0.405 -0.11 Q 0.41200000000000003 -0.12 0.418 -0.12 Q 0.427 -0.12 0.43 -0.107 Q 0.43 -0.096 0.396 -0.064 Q 0.313 0.011 0.203 0.011 Q 0.108 0.011 0.065 -0.065 Q 0.041 -0.106 0.041 -0.158 Q 0.041 -0.26 0.11900000000000001 -0.34700000000000003 Q 0.196 -0.433 0.291 -0.441 Q 0.3 -0.442 0.309 -0.442 Q 0.386 -0.442 0.41600000000000004 -0.395 Q 0.427 -0.377 0.427 -0.356 Q 0.427 -0.312 0.392 -0.296 Q 0.382 -0.292 0.371 -0.292 Q 0.341 -0.292 0.335 -0.318 Q 0.334 -0.322 0.334 -0.327 Q 0.334 -0.34900000000000003 0.352 -0.366 Q 0.366 -0.38 0.396 -0.38 Z"/></g></g><g transform="scale(14,14)"><g transform="translate(22.285714285714285,5.265873571428571)"><path fill="rgb(0,0,0)" stroke="none" paint-order="stroke fill markers" d=" M 0.516 -0.683 L 0.372 -0.105 Q 0.366 -0.08 0.366 -0.057 Q 0.366 -0.011 0.396 -0.011 Q 0.434 -0.011 0.46 -0.091 Q 0.465 -0.108 0.47200000000000003 -0.135 Q 0.48 -0.152 0.486 -0.153 Q 0.498 -0.153 0.498 -0.14300000000000002 Q 0.498 -0.128 0.48 -0.073 Q 0.47400000000000003 -0.056 0.468 -0.044 Q 0.44 0.011 0.394 0.011 Q 0.338 0.011 0.313 -0.037 Q 0.306 -0.049 0.303 -0.064 Q 0.24 0.011 0.17300000000000001 0.011 Q 0.098 0.011 0.062 -0.057 Q 0.04 -0.097 0.04 -0.149 Q 0.04 -0.257 0.115 -0.34900000000000003 Q 0.185 -0.433 0.267 -0.441 Q 0.274 -0.442 0.281 -0.442 Q 0.342 -0.442 0.373 -0.378 L 0.433 -0.615 L 0.436 -0.635 Q 0.436 -0.646 0.422 -0.649 Q 0.41000000000000003 -0.652 0.386 -0.652 Q 0.364 -0.652 0.362 -0.664 Q 0.362 -0.681 0.376 -0.683 Q 0.47000000000000003 -0.6940000000000001 0.503 -0.6940000000000001 Q 0.516 -0.6940000000000001 0.516 -0.683 M 0.308 -0.11900000000000001 L 0.308 -0.11900000000000001 L 0.358 -0.315 Q 0.361 -0.33 0.361 -0.332 Q 0.361 -0.353 0.343 -0.383 Q 0.321 -0.42 0.28200000000000003 -0.42 Q 0.23 -0.42 0.183 -0.352 Q 0.17400000000000002 -0.339 0.166 -0.324 Q 0.137 -0.266 0.117 -0.159 Q 0.111 -0.125 0.111 -0.105 Q 0.111 -0.037 0.149 -0.017 Q 0.16 -0.011 0.17500000000000002 -0.011 Q 0.231 -0.011 0.28800000000000003 -0.082 Q 0.302 -0.098 0.307 -0.115 L 0.307 -0.116 Q 0.308 -0.11800000000000001 0.308 -0.11900000000000001 Z"/></g></g><g transform="scale(14,14) translate(4.714285714285714,13) scale(0.1,0.1)"><text fill="rgb(0,0,0)" stroke="none" font-family="Times New Roman, 微软雅黑" font-size="10px" font-style="normal" font-weight="normal" text-decoration="none" x="0" y="0" text-anchor="start" dominant-baseline="alphabetic">图</text><g transform="scale(10,10) translate(-4.714285714285714,-13)"><g transform="translate(5.75428571488176,13)"><path fill="rgb(0,0,0)" stroke="none" paint-order="stroke fill markers" d=" M 0.294 -0.64 L 0.294 -0.079 Q 0.294 -0.049 0.306 -0.041 Q 0.323 -0.031 0.387 -0.031 L 0.419 -0.031 L 0.419 0 Q 0.384 -0.003 0.257 -0.003 Q 0.13 -0.003 0.095 0 L 0.095 -0.031 L 0.127 -0.031 Q 0.20400000000000001 -0.031 0.215 -0.049 L 0.216 -0.05 Q 0.22 -0.058 0.22 -0.079 L 0.22 -0.597 Q 0.168 -0.5710000000000001 0.089 -0.5710000000000001 L 0.089 -0.602 Q 0.209 -0.602 0.271 -0.666 Q 0.29 -0.666 0.293 -0.659 L 0.293 -0.659 L 0.293 -0.658 Q 0.294 -0.655 0.294 -0.64 Z"/></g></g></g><g transform="scale(14,14) translate(19,13) scale(0.1,0.1)"><text fill="rgb(0,0,0)" stroke="none" font-family="Times New Roman, 微软雅黑" font-size="10px" font-style="normal" font-weight="normal" text-decoration="none" x="0" y="0" text-anchor="start" dominant-baseline="alphabetic">图</text><g transform="scale(10,10) translate(-19,-13)"><g transform="translate(20.040000000596045,13)"><path fill="rgb(0,0,0)" stroke="none" paint-order="stroke fill markers" d=" M 0.449 -0.17400000000000002 L 0.449 -0.17400000000000002 L 0.421 0 L 0.05 0 Q 0.05 -0.025 0.056 -0.032 L 0.061 -0.037 L 0.253 -0.251 Q 0.358 -0.369 0.358 -0.47200000000000003 Q 0.358 -0.561 0.304 -0.607 L 0.303 -0.608 L 0.302 -0.608 Q 0.27 -0.635 0.224 -0.635 Q 0.152 -0.635 0.109 -0.5730000000000001 Q 0.097 -0.555 0.089 -0.533 Q 0.092 -0.534 0.10200000000000001 -0.534 Q 0.14200000000000002 -0.534 0.153 -0.498 L 0.153 -0.497 Q 0.155 -0.49 0.155 -0.482 Q 0.155 -0.442 0.117 -0.431 Q 0.109 -0.429 0.10300000000000001 -0.429 Q 0.066 -0.429 0.054 -0.46 Q 0.05 -0.47100000000000003 0.05 -0.485 Q 0.05 -0.562 0.109 -0.617 Q 0.162 -0.666 0.23700000000000002 -0.666 Q 0.34700000000000003 -0.666 0.40800000000000003 -0.592 Q 0.443 -0.549 0.448 -0.49 Q 0.449 -0.481 0.449 -0.47200000000000003 Q 0.449 -0.399 0.394 -0.333 Q 0.365 -0.299 0.304 -0.243 L 0.243 -0.189 L 0.233 -0.18 L 0.127 -0.077 L 0.307 -0.077 Q 0.395 -0.077 0.402 -0.085 Q 0.41200000000000003 -0.099 0.424 -0.17400000000000002 L 0.449 -0.17400000000000002 Z"/></g></g></g></g></g></svg>