<?xml version="1.0" encoding="UTF-8"?>
<svg id="_图层_1" data-name="图层_1" xmlns="http://www.w3.org/2000/svg" viewBox="0 0 212.04 282.66">
  <defs>
    <style>
      .cls-1 {
        fill: #c9caca;
      }

      .cls-1, .cls-2 {
        stroke: #231815;
        stroke-miterlimit: 10;
        stroke-width: 2px;
      }

      .cls-2 {
        fill: none;
      }
    </style>
  </defs>
  <line class="cls-2" y1="263.83" x2="212.04" y2="263.83"/>
  <line class="cls-2" x1="13.67" y1="263.44" x2="2.73" y2="282.15"/>
  <line class="cls-2" x1="24.12" y1="263.44" x2="13.18" y2="282.15"/>
  <line class="cls-2" x1="35.74" y1="263.44" x2="24.81" y2="282.15"/>
  <line class="cls-2" x1="47.35" y1="263.44" x2="36.41" y2="282.15"/>
  <line class="cls-2" x1="58.38" y1="263.44" x2="47.45" y2="282.15"/>
  <line class="cls-2" x1="70.01" y1="263.44" x2="59.07" y2="282.15"/>
  <line class="cls-2" x1="81.61" y1="263.44" x2="70.67" y2="282.15"/>
  <line class="cls-2" x1="92.06" y1="263.44" x2="81.12" y2="282.15"/>
  <line class="cls-2" x1="103.68" y1="263.44" x2="92.75" y2="282.15"/>
  <line class="cls-2" x1="115.29" y1="263.44" x2="104.35" y2="282.15"/>
  <line class="cls-2" x1="125.93" y1="263.44" x2="114.99" y2="282.15"/>
  <line class="cls-2" x1="137.55" y1="263.44" x2="126.61" y2="282.15"/>
  <line class="cls-2" x1="149.15" y1="263.44" x2="138.22" y2="282.15"/>
  <line class="cls-2" x1="159.6" y1="263.44" x2="148.67" y2="282.15"/>
  <line class="cls-2" x1="171.23" y1="263.44" x2="160.29" y2="282.15"/>
  <line class="cls-2" x1="182.83" y1="263.44" x2="171.89" y2="282.15"/>
  <line class="cls-2" x1="193.87" y1="263.44" x2="182.93" y2="282.15"/>
  <line class="cls-2" x1="205.49" y1="263.44" x2="194.55" y2="282.15"/>
  <g>
    <polyline class="cls-2" points="104.59 89.39 86.59 107.39 104.67 125.47"/>
    <polyline class="cls-2" points="104.59 123.88 86.59 141.88 104.67 159.96"/>
    <polyline class="cls-2" points="104.59 158.38 86.59 176.38 104.67 194.46"/>
    <polyline class="cls-2" points="104.59 192.87 86.59 210.87 104.67 228.95"/>
    <polyline class="cls-2" points="104.59 227.36 86.59 245.36 104.67 263.44"/>
  </g>
  <circle class="cls-1" cx="95.63" cy="19.66" r="18.66"/>
</svg>