<?xml version="1.0" encoding="UTF-8"?>
<svg id="_图层_1" data-name="图层_1" xmlns="http://www.w3.org/2000/svg" xmlns:xlink="http://www.w3.org/1999/xlink" viewBox="0 0 547.66 90.91">
  <defs>
    <style>
      .cls-1 {
        stroke: #231815;
        stroke-miterlimit: 10;
        stroke-width: 2px;
      }

      .cls-1, .cls-2 {
        fill: none;
      }

      .cls-3 {
        clip-path: url(#clippath);
      }
    </style>
    <clipPath id="clippath">
      <rect class="cls-2" x="1.32" y="69.88" width="306.7" height="18.32"/>
    </clipPath>
  </defs>
  <g class="cls-3">
    <g>
      <line class="cls-1" y1="72.08" x2="547.66" y2="72.08"/>
      <line class="cls-1" x1="13.29" y1="71.69" x2="2.35" y2="90.4"/>
      <line class="cls-1" x1="24.91" y1="71.69" x2="13.97" y2="90.4"/>
      <line class="cls-1" x1="36.52" y1="71.69" x2="25.58" y2="90.4"/>
      <line class="cls-1" x1="46.97" y1="71.69" x2="36.03" y2="90.4"/>
      <line class="cls-1" x1="58.59" y1="71.69" x2="47.65" y2="90.4"/>
      <line class="cls-1" x1="70.19" y1="71.69" x2="59.26" y2="90.4"/>
      <line class="cls-1" x1="81.23" y1="71.69" x2="70.29" y2="90.4"/>
      <line class="cls-1" x1="92.85" y1="71.69" x2="81.91" y2="90.4"/>
      <line class="cls-1" x1="104.46" y1="71.69" x2="93.52" y2="90.4"/>
      <line class="cls-1" x1="114.91" y1="71.69" x2="103.97" y2="90.4"/>
      <line class="cls-1" x1="126.53" y1="71.69" x2="115.59" y2="90.4"/>
      <line class="cls-1" x1="138.13" y1="71.69" x2="127.2" y2="90.4"/>
      <line class="cls-1" x1="148.47" y1="71.69" x2="137.54" y2="90.4"/>
      <line class="cls-1" x1="160.1" y1="71.69" x2="149.16" y2="90.4"/>
      <line class="cls-1" x1="171.7" y1="71.69" x2="160.76" y2="90.4"/>
      <line class="cls-1" x1="182.15" y1="71.69" x2="171.21" y2="90.4"/>
      <line class="cls-1" x1="193.77" y1="71.69" x2="182.84" y2="90.4"/>
      <line class="cls-1" x1="205.38" y1="71.69" x2="194.44" y2="90.4"/>
      <line class="cls-1" x1="216.41" y1="71.69" x2="205.48" y2="90.4"/>
      <line class="cls-1" x1="228.04" y1="71.69" x2="217.1" y2="90.4"/>
      <line class="cls-1" x1="239.64" y1="71.69" x2="228.7" y2="90.4"/>
      <line class="cls-1" x1="250.09" y1="71.69" x2="239.15" y2="90.4"/>
      <line class="cls-1" x1="261.71" y1="71.69" x2="250.78" y2="90.4"/>
      <line class="cls-1" x1="273.32" y1="71.69" x2="262.38" y2="90.4"/>
      <line class="cls-1" x1="283.96" y1="71.69" x2="273.02" y2="90.4"/>
      <line class="cls-1" x1="295.58" y1="71.69" x2="284.64" y2="90.4"/>
      <line class="cls-1" x1="307.18" y1="71.69" x2="296.25" y2="90.4"/>
      <line class="cls-1" x1="317.63" y1="71.69" x2="306.7" y2="90.4"/>
      <line class="cls-1" x1="329.26" y1="71.69" x2="318.32" y2="90.4"/>
      <line class="cls-1" x1="340.86" y1="71.69" x2="329.92" y2="90.4"/>
      <line class="cls-1" x1="351.9" y1="71.69" x2="340.96" y2="90.4"/>
      <line class="cls-1" x1="363.52" y1="71.69" x2="352.58" y2="90.4"/>
      <line class="cls-1" x1="375.12" y1="71.69" x2="364.19" y2="90.4"/>
      <line class="cls-1" x1="385.57" y1="71.69" x2="374.64" y2="90.4"/>
      <line class="cls-1" x1="397.2" y1="71.69" x2="386.26" y2="90.4"/>
      <line class="cls-1" x1="408.8" y1="71.69" x2="397.86" y2="90.4"/>
      <line class="cls-1" x1="419.14" y1="71.69" x2="408.2" y2="90.4"/>
      <line class="cls-1" x1="430.77" y1="71.69" x2="419.83" y2="90.4"/>
      <line class="cls-1" x1="442.37" y1="71.69" x2="431.43" y2="90.4"/>
      <line class="cls-1" x1="452.82" y1="71.69" x2="441.88" y2="90.4"/>
      <line class="cls-1" x1="464.44" y1="71.69" x2="453.51" y2="90.4"/>
      <line class="cls-1" x1="476.05" y1="71.69" x2="465.11" y2="90.4"/>
      <line class="cls-1" x1="487.08" y1="71.69" x2="476.14" y2="90.4"/>
      <line class="cls-1" x1="498.71" y1="71.69" x2="487.77" y2="90.4"/>
      <line class="cls-1" x1="510.31" y1="71.69" x2="499.37" y2="90.4"/>
      <line class="cls-1" x1="520.76" y1="71.69" x2="509.82" y2="90.4"/>
      <line class="cls-1" x1="532.38" y1="71.69" x2="521.45" y2="90.4"/>
      <line class="cls-1" x1="543.99" y1="71.69" x2="533.05" y2="90.4"/>
    </g>
  </g>
  <g>
    <path class="cls-1" d="M227,8.57v61.76H30.49"/>
    <line class="cls-1" x1="30.49" y1="70.33" x2="227" y2="8.57"/>
  </g>
  <rect class="cls-1" x="138" y="4.74" width="26.85" height="26.85" transform="translate(1.75 47.42) rotate(-17.9)"/>
</svg>