<?xml version="1.0" encoding="utf-8"?>
<svg xmlns="http://www.w3.org/2000/svg" viewBox="0 0 24 24" width="480" height="480">
  <path d="M11 2L11 4L13 4L13 2L11 2 z M 9 4.3457031C4.948 5.3037031 2 8.148 2 11.5C2 15.122574 5.4406991 18.153083 10 18.849609L10 22L14 18L10 14L10 16.818359C6.5554724 16.205175 4 14.056531 4 11.5C4 9.197 6.072 7.2222969 9 6.4042969L9 4.3457031 z M 15 4.3457031L15 6.4042969C17.928 7.2222969 20 9.197 20 11.5C20 13.281 18.716453 14.965859 16.564453 16.005859L17.435547 17.806641C20.294547 16.424641 22 14.066 22 11.5C22 8.148 19.052 5.3037031 15 4.3457031 z M 11 6L11 8L13 8L13 6L11 6 z M 11 10L11 12L13 12L13 10L11 10 z" />
</svg>