<?xml version="1.0" encoding="utf-8"?>
<svg xmlns="http://www.w3.org/2000/svg" viewBox="0 0 80 80" width="480" height="480">
  <path d="M40 9C39.449219 9 39 9.449219 39 10C39 10.550781 39.449219 11 40 11C40.550781 11 41 10.550781 41 10C41 9.449219 40.550781 9 40 9 Z M 40 13C39.449219 13 39 13.449219 39 14C39 14.550781 39.449219 15 40 15C40.550781 15 41 14.550781 41 14C41 13.449219 40.550781 13 40 13 Z M 40 17C39.449219 17 39 17.449219 39 18C39 18.550781 39.449219 19 40 19C40.550781 19 41 18.550781 41 18C41 17.449219 40.550781 17 40 17 Z M 36 19.113281C18.324219 20.105469 5 27.605469 5 37L5 44C5 48.566406 8.203125 52.597656 13.199219 55.636719C17.996094 58.554688 24.554688 60.605469 32 61.492188L32 69.414063L44.414063 57L32 44.585938L32 52.472656C24.886719 51.597656 18.65625 49.613281 14.238281 46.925781C10.898438 44.894531 8.628906 42.527344 7.609375 40.011719C10.339844 33.214844 22.089844 27.980469 36 27.125L36 25.128906C22.664063 25.910156 11.402344 30.527344 7 36.957031C7.046875 28.8125 19.710938 22.082031 36 21.121094 Z M 44 19.113281L44 21.121094C60.289063 22.082031 72.953125 28.8125 73 36.957031C68.597656 30.527344 57.335938 25.910156 44 25.128906L44 27.125C57.898438 27.980469 69.648438 33.210938 72.386719 40C70.191406 45.507813 62.089844 50.175781 50.832031 52.097656L50 52.242188L50 61.269531L51.167969 61.070313C65.421875 58.632813 75 51.773438 75 44L75 37C75 27.605469 61.675781 20.105469 44 19.113281 Z M 40 21C39.449219 21 39 21.449219 39 22C39 22.550781 39.449219 23 40 23C40.550781 23 41 22.550781 41 22C41 21.449219 40.550781 21 40 21 Z M 40 25C39.449219 25 39 25.449219 39 26C39 26.550781 39.449219 27 40 27C40.550781 27 41 26.550781 41 26C41 25.449219 40.550781 25 40 25 Z M 40 29C39.449219 29 39 29.449219 39 30C39 30.550781 39.449219 31 40 31C40.550781 31 41 30.550781 41 30C41 29.449219 40.550781 29 40 29 Z M 40 33C39.449219 33 39 33.449219 39 34C39 34.550781 39.449219 35 40 35C40.550781 35 41 34.550781 41 34C41 33.449219 40.550781 33 40 33 Z M 40 37C38.894531 37 38 37.894531 38 39C38 40.105469 38.894531 41 40 41C41.105469 41 42 40.105469 42 39C42 37.894531 41.105469 37 40 37 Z M 7 42.96875C8.429688 45.089844 10.53125 47.011719 13.199219 48.636719C18.195313 51.675781 25.066406 53.808594 32.894531 54.625L34 54.742188L34 49.414063L41.585938 57L34 64.585938L34 59.734375L33.105469 59.640625C25.515625 58.84375 18.890625 56.757813 14.238281 53.925781C9.585938 51.097656 7 47.621094 7 44 Z M 73 43.03125L73 44C73 50.5625 64.613281 56.472656 52 58.890625L52 53.921875C61.992188 52.070313 69.578125 48.019531 73 43.03125 Z M 40 44C39.449219 44 39 44.449219 39 45C39 45.550781 39.449219 46 40 46C40.550781 46 41 45.550781 41 45C41 44.449219 40.550781 44 40 44 Z M 40 48C39.449219 48 39 48.449219 39 49C39 49.550781 39.449219 50 40 50C40.550781 50 41 49.550781 41 49C41 48.449219 40.550781 48 40 48 Z M 40 64C39.449219 64 39 64.449219 39 65C39 65.550781 39.449219 66 40 66C40.550781 66 41 65.550781 41 65C41 64.449219 40.550781 64 40 64 Z M 40 68C39.449219 68 39 68.449219 39 69C39 69.550781 39.449219 70 40 70C40.550781 70 41 69.550781 41 69C41 68.449219 40.550781 68 40 68Z" />
</svg>