<?xml version="1.0" encoding="utf-8"?>
<svg xmlns="http://www.w3.org/2000/svg" viewBox="0 0 40 40" width="480" height="480">
  <path fill="#8bb7f0" d="M20.071,24.76l-6.748,9.593l-2.694-1.595l5.624-10.556l-0.567-6.241l-6.252,6.471l-2.209-2.134 l8.694-8.998c0.444-0.517,1.055-0.8,1.696-0.8h4.913c0.641,0,1.251,0.283,1.675,0.777l8.714,9.021l-2.208,2.134l-6.253-6.471 l-0.566,6.241l5.624,10.556l-2.694,1.595L20.071,24.76z" />
  <path fill="#4e7ab5" d="M22.528,11c0.502,0,0.962,0.214,1.296,0.603l0.019,0.022l0.021,0.021l8.347,8.639l-1.49,1.439 l-5.147-5.327l-1.517-1.57l-0.198,2.175l-0.455,5.005l-0.027,0.297l0.14,0.263l5.329,10.002l-1.885,1.116l-6.073-8.634 l-0.818-1.163l-0.818,1.163l-6.073,8.634l-1.885-1.116l5.33-10.002l0.14-0.263l-0.027-0.297l-0.455-5.005l-0.198-2.175 l-1.517,1.57l-5.147,5.327l-1.49-1.439l8.347-8.639l0.021-0.021l0.019-0.022C16.653,11.214,17.113,11,17.615,11H22.528 M22.528,10 h-4.913c-0.829,0-1.559,0.374-2.055,0.952L6.518,20.31l2.928,2.829l5.841-6.046l0.455,5.005L9.964,32.944l3.503,2.074l6.604-9.39 l6.604,9.39l3.503-2.074L24.4,22.099l0.455-5.005l5.841,6.046l2.928-2.829l-9.042-9.358C24.087,10.374,23.357,10,22.528,10 L22.528,10z" />
  <path fill="#f78f8f" d="M29.5 32.5A3 3 0 1 0 29.5 38.5A3 3 0 1 0 29.5 32.5Z" />
  <path fill="#c74343" d="M29.5,33c1.379,0,2.5,1.121,2.5,2.5S30.879,38,29.5,38S27,36.879,27,35.5S28.121,33,29.5,33 M29.5,32c-1.933,0-3.5,1.567-3.5,3.5s1.567,3.5,3.5,3.5s3.5-1.567,3.5-3.5S31.433,32,29.5,32L29.5,32z" />
  <path fill="#f78f8f" d="M31.5 18.5A3 3 0 1 0 31.5 24.5A3 3 0 1 0 31.5 18.5Z" />
  <path fill="#c74343" d="M31.5,19c1.379,0,2.5,1.121,2.5,2.5S32.879,24,31.5,24S29,22.879,29,21.5S30.121,19,31.5,19 M31.5,18c-1.933,0-3.5,1.567-3.5,3.5s1.567,3.5,3.5,3.5s3.5-1.567,3.5-3.5S33.433,18,31.5,18L31.5,18z" />
  <g>
    <path fill="#f78f8f" d="M8.5 18.5A3 3 0 1 0 8.5 24.5A3 3 0 1 0 8.5 18.5Z" />
    <path fill="#c74343" d="M8.5,19c1.379,0,2.5,1.121,2.5,2.5S9.879,24,8.5,24S6,22.879,6,21.5S7.121,19,8.5,19 M8.5,18 C6.567,18,5,19.567,5,21.5S6.567,25,8.5,25s3.5-1.567,3.5-3.5S10.433,18,8.5,18L8.5,18z" />
  </g>
  <g>
    <path fill="#ffeea3" d="M20.071 1.5A3.5 3.5 0 1 0 20.071 8.5A3.5 3.5 0 1 0 20.071 1.5Z" />
    <path fill="#ba9b48" d="M20.071,2c1.654,0,3,1.346,3,3s-1.346,3-3,3s-3-1.346-3-3S18.417,2,20.071,2 M20.071,1 c-2.209,0-4,1.791-4,4s1.791,4,4,4s4-1.791,4-4S22.281,1,20.071,1L20.071,1z" />
  </g>
  <g>
    <path fill="#f78f8f" d="M10.5 32.5A3 3 0 1 0 10.5 38.5A3 3 0 1 0 10.5 32.5Z" />
    <path fill="#c74343" d="M10.5,33c1.379,0,2.5,1.121,2.5,2.5S11.879,38,10.5,38S8,36.879,8,35.5S9.121,33,10.5,33 M10.5,32 C8.567,32,7,33.567,7,35.5S8.567,39,10.5,39s3.5-1.567,3.5-3.5S12.433,32,10.5,32L10.5,32z" />
  </g>
</svg>