<?xml version="1.0" encoding="utf-8"?>
<svg xmlns="http://www.w3.org/2000/svg" viewBox="0 0 48 48" width="144" height="144">
  <path d="M9.5449219 8C6.5251478 8 4.0449219 10.480226 4.0449219 13.5L4.0449219 34.5C4.0449219 37.519774 6.5251478 40 9.5449219 40L38.544922 40C41.564696 40 44.044922 37.519774 44.044922 34.5L44.044922 13.5C44.044922 10.480226 41.564696 8 38.544922 8L9.5449219 8 z M 9.5449219 11L38.544922 11C39.943148 11 41.044922 12.101774 41.044922 13.5L41.044922 34.5C41.044922 35.898226 39.943148 37 38.544922 37L9.5449219 37C8.146696 37 7.0449219 35.898226 7.0449219 34.5L7.0449219 13.5C7.0449219 12.101774 8.146696 11 9.5449219 11 z M 18.044922 17C15.388922 17 13.432547 18.682109 13.060547 21.287109C12.943547 22.107109 13.512031 22.867375 14.332031 22.984375C15.151031 23.102375 15.912297 22.533891 16.029297 21.712891C16.141297 20.931891 16.581922 20 18.044922 20C19.147922 20 20.044922 20.897 20.044922 22C20.044922 23.103 19.147922 24 18.044922 24C15.636922 24 13.044922 25.721 13.044922 29.5C13.044922 30.329 13.715922 31 14.544922 31L21.544922 31C22.373922 31 23.044922 30.329 23.044922 29.5C23.044922 28.671 22.373922 28 21.544922 28L16.353516 28C16.826516 27.093 17.708922 27 18.044922 27C20.801922 27 23.044922 24.757 23.044922 22C23.044922 19.243 20.801922 17 18.044922 17 z M 31.931641 17.001953C29.533641 17.110953 25 19.076328 25 25.736328C25 25.765776 25.008095 25.79324 25.009766 25.822266C25.007698 25.881206 25 25.938612 25 25.998047C25 28.755047 27.243 30.998047 30 30.998047C32.757 30.998047 35 28.755047 35 25.998047C35 23.241047 32.757 20.998047 30 20.998047C29.912198 20.998047 29.826938 21.007225 29.740234 21.011719C30.746722 20.137548 31.856148 20.011302 32.080078 19.996094C32.901078 19.952094 33.535047 19.255641 33.498047 18.431641C33.461047 17.604641 32.763641 16.977953 31.931641 17.001953 z M 30 23.998047C31.103 23.998047 32 24.895047 32 25.998047C32 27.101047 31.103 27.998047 30 27.998047C28.897 27.998047 28 27.101047 28 25.998047C28 24.895047 28.897 23.998047 30 23.998047 z" fill="#5B5B5B" />
</svg>