<svg xmlns="http://www.w3.org/2000/svg" fill="#000" width="800" height="800" viewBox="144 144 512 512"><g><path d="m322.21 561.43c-84.609.0-153.45-71.523-153.45-159.44.0-87.91 68.84-159.43 153.45-159.43 37.465.0 73.418 14.129 101.46 39.824l201.39 80.555c3.7344 1.4961 6.1836 5.1133 6.1836 9.1367v59.84c0 4.0234-2.4492 7.6445-6.1836 9.1367l-201.39 80.555c-28.043 25.695-63.996 39.824-101.46 39.824zm0-299.19c-73.762.0-133.77 62.695-133.77 139.75.0 77.059 60.008 139.75 133.77 139.75 33.059.0 64.797-12.707 89.375-35.777.89453-.83984 1.9414-1.5039 3.082-1.9609l196.89-78.758v-46.516l-196.9-78.758c-1.1406-.45703-2.1836-1.1211-3.082-1.9609-24.57-23.07-56.309-35.777-89.371-35.777z"/><path d="m431.16 509.27c-2.1094.0-4.2344-.67578-6.0273-2.0703-2.4961-1.9414-3.8047-4.8438-3.8008-7.7773.0-2.0898.66797-4.1953 2.0391-5.9766.015624-.019531.035156-.046874.050781-.066406 3.3359-4.2891 9.5195-5.0625 13.809-1.7188 2.4922 1.9414 3.7969 4.8398 3.7969 7.7695.0 2.1133-.67578 4.2422-2.0742 6.0391-1.9453 2.4922-4.8555 3.8008-7.793 3.8008z"/><path d="m433.46 506.42c-2.1406.0-4.2969-.69531-6.1055-2.1289-2.4492-1.9453-3.7266-4.8164-3.7266-7.7148.0-2.1406.69531-4.2969 2.1289-6.1094l.20703-.26562c3.3359-4.2891 9.5195-5.0625 13.809-1.7266 2.4922 1.9375 3.7969 4.8398 3.7969 7.7695.0 2.1133-.67578 4.2422-2.0742 6.0391l-.31641.41016c-1.9453 2.4492-4.8164 3.7266-7.7188 3.7266z"/><path d="m322.21 561.43c-84.609.0-153.45-71.523-153.45-159.44.0-87.91 68.84-159.43 153.45-159.43 56.598.0 108.42 32.203 135.24 84.039 2.4961 4.8281.60938 10.766-4.2188 13.262-4.8242 2.5-10.762.60938-13.262-4.2188-23.426-45.277-68.547-73.402-117.76-73.402-73.762.0-133.77 62.695-133.77 139.75.0 77.059 60.008 139.75 133.77 139.75 50.918.0 96.754-29.555 119.62-77.133 2.3555-4.8984 8.2305-6.9609 13.133-4.6055 4.8984 2.3555 6.9609 8.2344 4.6055 13.133-12.535 26.078-31.715 48.105-55.465 63.707-24.48 16.082-52.801 24.582-81.898 24.582z"/><path d="m621.4 390.16H424.6c-5.4336.0-9.8398-4.4062-9.8398-9.8398s4.4062-9.8398 9.8398-9.8398h196.8c5.4336.0 9.8398 4.4062 9.8398 9.8398s-4.4062 9.8398-9.8398 9.8398z"/><path d="m621.4 439.36H424.6c-5.4336.0-9.8398-4.4062-9.8398-9.8398s4.4062-9.8398 9.8398-9.8398h196.8c5.4336.0 9.8398 4.4062 9.8398 9.8398s-4.4062 9.8398-9.8398 9.8398z"/><path d="m322.21 472.87c-37.734.0-68.434-31.793-68.434-70.875.0-39.078 30.699-70.875 68.434-70.875s68.434 31.797 68.434 70.875c0 39.082-30.699 70.875-68.434 70.875zm0-122.07c-26.883.0-48.754 22.965-48.754 51.195s21.871 51.195 48.754 51.195c26.883.0 48.754-22.965 48.754-51.195.0-28.227-21.867-51.195-48.754-51.195z"/><path d="m322.21 350.8c-2.7305.0-5.3984-1.1367-7.3047-3.2422l-64.891-71.805c-3.6445-4.0312-3.3281-10.254.70312-13.898 4.0312-3.6445 10.254-3.3281 13.898.70313l47.75 52.84v-92.516c0-5.4336 4.4062-9.8398 9.8398-9.8398s9.8398 4.4062 9.8398 9.8398v118.08c0 4.0703-2.5078 7.7227-6.3047 9.1836-1.1484.4375-2.3477.65234-3.5312.65234z"/><path d="m322.21 586.96c-5.4336.0-9.8398-4.4062-9.8398-9.8398v-90.336l-53.012 53.012c-3.8438 3.8398-10.074 3.8398-13.918.0-3.8438-3.8438-3.8438-10.074.0-13.918l69.809-69.812c2.8125-2.8125 7.0469-3.6523 10.723-2.1328 3.6758 1.5234 6.0742 5.1094 6.0742 9.0898l.003906 114.09c0 5.4336-4.4023 9.8438-9.8398 9.8438z"/><path d="m375.4 232.72h-98.398c-5.4336.0-9.8398-4.4062-9.8398-9.8398l-.003906-39.359c0-5.4336 4.4062-9.8398 9.8398-9.8398h98.398c5.4336.0 9.8398 4.4062 9.8398 9.8398v39.359c.003906 5.4336-4.4023 9.8398-9.8359 9.8398zm-88.559-19.68h78.719v-19.68h-78.719z"/><path d="m375.4 626.32h-98.398c-5.4336.0-9.8398-4.4062-9.8398-9.8398v-39.359c0-5.4336 4.4062-9.8398 9.8398-9.8398H375.4c5.4336.0 9.8398 4.4062 9.8398 9.8398v39.359c0 5.4336-4.4062 9.8398-9.8398 9.8398zm-88.559-19.68h78.719v-19.68h-78.719z"/><path d="m552.52 439.36c-5.4336.0-9.8398-4.4062-9.8398-9.8398v-49.199c0-5.4336 4.4062-9.8398 9.8398-9.8398s9.8398 4.4062 9.8398 9.8398v49.199c0 5.4336-4.4062 9.8398-9.8398 9.8398z"/><path d="m513.16 439.36c-5.4336.0-9.8398-4.4062-9.8398-9.8398v-49.199c0-5.4336 4.4062-9.8398 9.8398-9.8398s9.8398 4.4062 9.8398 9.8398v49.199c0 5.4336-4.4062 9.8398-9.8398 9.8398z"/><path d="m385.24 321.28h19.68v19.68h-19.68z"/><path d="m385.24 459.04h19.68v19.68h-19.68z"/></g></svg>