<svg xmlns="http://www.w3.org/2000/svg" width="800" height="800" viewBox="144 144 512 512"><defs><clipPath id="a"><path d="m148.09 175H651.9v449H148.09z"/></clipPath></defs><path d="m309.52 384.68c44.941-5.8438 76.781-46.953 70.938-91.691-2.2148-17.23-9.6719-32.949-21.562-45.543-7.3555-7.8594-16.727-12.293-26.301-12.695-9.9766-.40234-19.75 3.5273-28.113 11.285-6.8516 6.4492-17.027 7.6562-25.391 3.2227-10.078-5.4414-20.555-6.75-30.129-3.8281-9.168 2.8203-17.129 9.4727-22.27 18.941-8.2617 15.215-11.488 32.344-9.2695 49.574 5.8438 44.535 47.055 76.375 92.098 70.734zm-82.625-72.145c-2.0156-15.215.90625-30.328 8.1602-43.832 4.9375-8.9688 12.293-14.207 20.656-15.316 5.9453-.70703 12.293.50391 18.742 4.0312 11.891 6.3477 26.5 4.5352 36.375-4.6367 13-12.09 29.121-11.688 41.109 1.0078 10.48 11.184 17.129 25.09 19.043 40.305 5.1406 39.598-23.074 75.973-62.773 81.113-39.699 5.0391-76.176-23.074-81.312-62.672z"/><path d="m278.38 291.78c-1.3086-10.48-10.984-17.836-21.461-16.527-10.48 1.3125-17.938 10.883-16.629 21.363 1.3086 10.48 10.984 17.836 21.461 16.523 10.582-1.3086 17.938-10.883 16.629-21.359zm-25.391 3.2227c-3.5273.40234-6.75-2.0156-7.1523-5.543-.50391-3.5273 2.0156-6.75 5.543-7.1523s6.75 2.0156 7.1523 5.543c.40234 3.5273-2.0195 6.75-5.543 7.1523z"/><path d="m337.43 303.47c10.48-1.3086 17.938-10.883 16.625-21.363-1.3086-10.48-10.984-17.836-21.461-16.523-10.48 1.3086-17.938 10.883-16.625 21.363 1.3086 10.477 10.98 17.934 21.461 16.523zm-10.48-30.832c3.5273-.40234 6.75 2.0156 7.1523 5.543.40234 3.5273-2.0156 6.75-5.543 7.1523-3.5273.40234-6.75-2.0156-7.1523-5.543-.5-3.5273 2.0156-6.6484 5.543-7.1523z"/><path d="m302.86 333.5c5.543-.70703 9.6719-3.9297 9.2695-7.1523-.40234-3.2227-5.2383-5.3398-10.781-4.6367-5.543.70703-9.6719 3.9297-9.2695 7.1523.40234 3.3281 5.2383 5.3398 10.781 4.6367z"/><path d="m338.33 347c-.40234-2.9219-15.617 6.0469-33.855 8.3633-18.34 2.3203-32.746-2.7188-32.445.10156.40234 2.9219 15.418 12.594 33.754 10.277 18.238-2.3164 32.848-15.918 32.547-18.742z"/><g clip-path="url(#a)"><path d="m614.52 296.32c-14.309-5.1406-42.422-8.1602-70.535 29.223-12.898 17.23-16.02 42.32-8.7656 69.023 5.1406 18.641 16.523 33.352 27.711 47.559 10.578 13.504 20.453 26.301 23.277 40.605 6.5508 34.059-13.602 75.371-45.949 94.012-11.082 6.3477-22.871 9.7734-35.066 10.277 23.98-33.957 41.012-95.32 19.547-169.88-10.781-37.586-35.066-69.727-72.246-95.523-9.875-6.8516-19.75-12.695-29.223-17.531 14.711-3.5273 24.688-17.836 22.773-33.352-2.1172-16.625-17.23-28.414-33.754-26.301-1.6133.20312-3.2227.50391-4.8359 1.0078-2.6211.80469-5.4414-.40234-6.5508-2.8203-9.7734-21.766-26.703-40.203-47.66-52.094-21.562-12.293-46.047-17.027-70.836-13.906-24.688 3.125-47.156 14.008-64.992 31.234-17.027 16.93-28.617 38.996-32.648 62.473-.40234 2.6211-2.8203 4.4336-5.6445 4.332-1.6133-.10156-3.2227.0-4.9375.20312-16.324 2.2148-28.012 17.434-25.797 33.957 2.2148 16.523 17.23 28.414 33.754 26.301 1.7148-.20312 3.5273-.60547 5.1406-1.1094 2.6211-.80469 5.3398.40234 6.4492 2.7188 9.9766 21.461 26.902 39.699 47.66 51.289 10.176 5.7422 20.957 9.7734 32.145 12.09 4.4336 29.824 9.9766 68.617 10.68 79.805.40234 7.1523-6.75 24.688-20.758 43.227-14.309 18.844-29.824 30.73-41.516 31.738-2.418.20312-4.8359.40234-7.3555.50391-18.34 1.2109-41.109 2.6211-41.816 24.988-.20312 6.6484 2.6211 12.898 8.5664 18.438 12.797 12.09 37.082 18.539 48.164 17.633 11.387-.90625 28.312-2.9219 32.547-3.4258 22.773 7.2539 46.652 10.984 68.922 10.984 6.3477.0 12.496-.30078 18.438-.90625 20.453-2.1172 36.375-7.5586 44.336-14.914 8.9688 9.4727 24.082 15.719 51.086 15.82h.10156c11.688.0 23.375-3.7266 34.16-10.883 2.5195.50391 5.0391.90625 7.5586 1.3086 4.9375.70703 9.9766 1.0078 14.812 1.0078 18.641.0 36.777-4.8359 53.102-14.309 42.824-24.688 68.418-77.891 59.652-123.73-4.0312-20.957-16.523-37.082-28.719-52.598-9.7734-12.594-19.145-24.484-22.672-37.684-2.3164-8.6641-6.6484-30.328 4.1328-44.738 8.9688-11.992 22.773-24.988 37.988-19.547 11.891 4.2305 18.844 17.129 18.539 22.469-.30078 5.1406-2.0156 14.008-6.75 14.508-8.6641.90625-17.836-5.7422-23.98-11.488-5.7422-5.3398-14.711-5.0391-20.051.60547-2.6211 2.7188-3.9297 6.3477-3.8281 10.078.10156 3.7266 1.7148 7.2539 4.4336 9.875 15.113 14.105 31.137 20.656 46.551 18.941 18.539-2.0156 30.832-17.734 32.043-41.109.90625-17.332-13.098-41.613-37.383-50.379zm-412.21 36.473c-2.7188-5.8438-9.0703-9.168-15.418-8.3633-.90625.10156-1.7148.30078-2.6211.60547-1.1094.40234-2.3164.60547-3.5273.80469-11.285 1.4102-21.562-6.6484-23.074-18.137-1.4102-11.488 6.5508-21.965 17.836-23.375 1.1094-.10156 2.2148-.20312 3.3242-.10156 7.5586.30078 14.105-4.9375 15.316-12.191 7.6562-45.445 43.73-79.902 89.68-85.848 45.949-5.8438 89.578 18.438 108.52 60.457 3.0234 6.6484 10.781 10.078 17.938 7.9609 1.1094-.30078 2.1172-.50391 3.2227-.70703 11.285-1.4102 21.562 6.6484 23.074 18.137s-6.4492 21.867-17.734 23.375c-1.2109.20312-2.418.20312-3.6289.10156-7.457-.40234-14.105 4.8359-15.418 12.09-8.0625 44.941-44.031 78.996-89.477 84.84-45.34 5.7461-88.766-18.133-108.01-59.648zm242.53 282.34c-48.77.0-52.195-20.453-56.527-46.352-.30078-1.6133-.50391-3.2227-.80469-4.8359-.40234-2.418-2.8203-4.1328-5.2383-3.7266-2.5195.40234-4.1328 2.8203-3.7266 5.2383.30078 1.6133.50391 3.2227.80469 4.7344 1.8125 10.68 3.6289 21.562 8.9688 30.73-4.8359 5.3398-18.238 11.082-39.801 13.301-21.867 2.2148-46.453.10156-70.434-5.9453 24.988-8.2617 63.379-23.879 78.293-56.125 6.4492-14.008 12.496-29.02 18.035-44.535 15.215-14.008 35.164-19.852 53.605-15.82 14.309 3.125 25.492 12.09 30.129 23.781.90625 2.3164 3.5273 3.5273 5.8438 2.6211s3.5273-3.5273 2.6211-5.8438c-5.6445-14.508-19.348-25.492-36.578-29.32-17.734-3.9297-36.676.10156-52.496 10.68 6.0469-33.855 4.332-63.984 4.2305-65.395-.10156-2.5195-2.3164-4.4336-4.8359-4.2305-2.5195.10156-4.4336 2.3164-4.2305 4.7344.0.40234 2.1172 37.887-6.5508 75.066-5.4414 15.617-11.488 30.633-17.938 44.637-15.418 33.352-60.961 47.66-82.926 54.512-1.3086.40234-2.5195.80469-3.7266 1.2109-2.9219.40234-20.859 2.5195-32.746 3.4258-7.9609.60547-30.23-4.7344-41.109-15.113-3.9297-3.7266-5.8438-7.6562-5.7422-11.586.40234-13.199 12.898-14.914 33.352-16.324 2.5195-.20312 5.1406-.30078 7.5586-.50391 20.453-1.8125 40.305-25.293 47.961-35.367 11.688-15.516 23.277-36.676 22.57-49.172-.60547-11.184-5.9453-48.164-10.277-77.688 9.4727 1.2109 19.043 1.2109 28.719-.10156 24.484-3.125 46.855-13.805 64.59-30.832 17.129-16.523 28.816-38.391 33.051-61.668.10156-.60547.30078-1.1094.60547-1.6133 37.785 17.938 88.973 52.395 106.2 112.15 21.262 73.961 3.3242 133.91-20.555 165.35-14.926 19.246-32.961 29.926-50.898 29.926zm197.9-268.73c-1.0078 18.539-10.176 31.035-23.98 32.547-12.695 1.4102-26.301-4.332-39.398-16.523-1.0078-.90625-1.6133-2.2148-1.6133-3.5273.0-1.3086.40234-2.6211 1.4102-3.6289 1.9141-2.0156 5.1406-2.1172 7.2539-.20312 7.5586 7.0547 19.145 15.215 31.234 13.906 8.5664-.90625 14.105-9.5742 14.914-22.973.50391-9.0703-8.8672-25.797-24.586-31.438-16.223-5.8438-32.949 2.0156-48.367 22.672-13.199 17.633-8.2617 42.621-5.543 52.496 4.1328 14.914 13.906 27.508 24.285 40.91 11.488 14.711 23.375 29.926 26.902 48.77 8.0625 42.32-15.617 91.391-55.219 114.27-18.539 10.68-39.699 14.914-61.164 12.191 3.2227-2.8203 6.2461-5.9453 9.2695-9.3711 16.324.70703 32.043-3.125 46.754-11.688 35.469-20.453 57.535-65.898 50.281-103.48-3.125-16.426-13.703-30.027-24.988-44.438-10.578-13.504-21.461-27.508-26.098-44.438-6.5508-23.98-3.9297-46.352 7.2539-61.262 24.484-32.746 48.164-30.43 60.055-26.199 19.453 6.8516 32.148 27.406 31.344 41.414z"/></g></svg>