<svg xmlns="http://www.w3.org/2000/svg" width="800" height="800" viewBox="144 144 512 512"><defs><clipPath id="b"><path d="m148.09 160H651.9v436H148.09z"/></clipPath><clipPath id="a"><path d="m148.09 540H624v101H148.09z"/></clipPath></defs><path d="m562.73 273.04c-31.234.0-56.93-25.695-56.93-56.93-.003906-31.238 25.691-56.934 56.93-56.934 31.234.0 56.93 25.695 56.93 56.93.0 31.238-25.695 56.934-56.93 56.934zm0-101.77c-24.688.0-44.84 20.152-44.84 44.84s20.152 44.84 44.84 44.84 44.84-20.152 44.84-44.84c-.003906-24.688-20.156-44.84-44.84-44.84z"/><g clip-path="url(#b)"><path d="m381.86 595.98c-9.5742.0-18.137-4.5352-23.68-12.09-5.543-7.5586-7.0547-17.129-4.5352-26.199l32.746-107.31c1.5117-4.5352 1.0078-9.0703-1.5117-13.098l-16.625-30.73-43.328 86.656c-5.0391 10.078-15.113 16.121-26.199 16.121l-119.4-.003906c-17.129.0-31.234-14.105-31.234-31.234s14.105-31.234 31.234-31.234h78.09c7.5586.0 14.105-4.5352 16.625-11.586l40.305-116.38c5.0391-14.609 15.113-26.199 28.719-33.25l64.488-33.25-38.289-24.688c-1.5117-1.0078-3.0234-1.5117-5.0391-1.5117l-77.586-5.543c-15.617-1.0078-27.711-14.105-27.711-30.23.0-8.5664 3.5273-16.625 10.078-22.168 6.5508-5.543 14.609-8.5664 23.176-7.5586l90.688 9.0703c3.5273.50391 6.5508 1.5117 9.5742 3.0234l97.738 60.457c2.5195 1.5117 3.5273 5.543 2.0156 8.0625s-5.543 3.5273-8.0625 2.0156l-97.738-60.457c-1.5117-1.0078-3.0234-1.5117-4.5352-1.5117l-90.688-9.0703c-5.0391-.50391-10.078 1.0078-14.105 4.5352-4.0312 3.5273-6.0469 8.5664-6.0469 13.602.0 9.5742 7.5586 17.633 17.129 18.137l76.578 5.0352c3.5273.50391 7.5586 1.5117 10.578 3.5273l46.855 30.23c1.5117 1.0078 3.0234 3.0234 2.5195 5.0391.0 2.0156-1.5117 4.0312-3.0234 5.0391l-73.051 37.785c-11.082 5.543-19.145 15.113-23.176 26.703l-40.305 116.38c-4.0312 11.586-15.113 19.648-27.711 19.648l-78.09-.003906c-10.578.0-19.145 8.5664-19.145 19.145s8.5664 19.145 19.145 19.145h119.4c6.5508.0 12.594-3.5273 15.617-9.5742l48.367-96.73c1.0078-2.0156 3.0234-3.0234 5.0391-3.0234s4.0312 1.0078 5.0391 3.0234l22.168 40.809c3.5273 6.5508 4.5352 15.113 2.5195 22.168l-32.242 107.82c-1.5117 5.543-.50391 11.082 2.5195 15.617 3.5273 4.5352 8.5664 7.0547 14.105 7.0547 7.5586.0 14.609-5.0391 17.129-12.594l43.328-139.05c1.5117-4.5352 1.0078-10.078-1.5117-14.105l-36.777-62.473c-1.0078-1.5117-1.0078-3.5273-.50391-5.0391s2.0156-3.0234 3.5273-3.5273l86.656-33.754c2.0156-1.0078 4.0312-.50391 6.0469 1.0078l61.461 52.895c3.0234 2.5195 8.0625 2.5195 11.082.0l62.977-50.883c3.0234-2.5195 4.5352-5.543 5.0391-9.0703.50391-3.5273-.50391-7.0547-3.0234-10.078-4.5352-5.543-13.098-6.5508-19.145-2.0156l-36.273 28.719c-7.5586 6.0469-18.641 6.0469-25.695.0l-33.754-27.711c-2.5195-2.0156-3.0234-5.543-1.0078-8.0625s5.543-3.0234 8.0625-1.0078l33.754 27.711c3.0234 2.5195 8.0625 2.5195 11.082.0l36.273-28.719c10.578-8.5664 26.703-7.0547 35.266 3.5273 4.5352 5.0391 6.5508 12.09 5.543 18.641-.50391 7.0547-4.0312 13.098-9.0703 17.129l-62.469 50.891c-7.5586 6.0469-18.641 6.0469-26.199.0l-59.449-49.375-76.578 30.23 33.25 56.426c4.0312 7.0547 5.0391 15.617 2.5195 23.68l-43.328 138.55c-4.0312 12.594-15.113 20.656-28.211 20.656z"/></g><g clip-path="url(#a)"><path d="m385.89 640.82c-95.219.0-237.29-13.602-237.29-50.383.0-31.234 102.78-46.352 190.44-49.375 3.0234.0 6.0469 2.5195 6.0469 5.543.0 3.0234-2.5195 6.0469-5.543 6.0469-116.88 4.5352-179.36 25.191-179.36 37.785.0 5.0391 13.098 16.121 62.977 25.695 43.328 8.5664 101.27 13.098 162.73 13.098 61.465.0 119.4-4.5352 162.73-13.098 49.875-9.5742 62.973-20.656 62.973-26.199.0-12.594-59.953-32.746-173.31-37.785-3.0234.0-5.543-3.0234-5.543-6.0469.0-3.0234 3.0234-6.0469 6.0469-5.543 30.73 1.5117 184.39 10.078 184.39 49.375.0 37.281-141.57 50.887-237.3 50.887z"/></g></svg>