<?xml version="1.0" encoding="UTF-8"?>
<svg version="1.1" xmlns="http://www.w3.org/2000/svg" width="101" height="174">
<path d="M0 0 C33.33 0 66.66 0 101 0 C101 57.42 101 114.84 101 174 C67.67 174 34.34 174 0 174 C0 116.58 0 59.16 0 0 Z " fill="#F8F8F8" transform="translate(0,0)"/>
<path d="M0 0 C0 0.66 0 1.32 0 2 C-0.98693848 1.98428955 -1.97387695 1.9685791 -2.99072266 1.95239258 C-6.72191912 1.89727843 -10.45308128 1.86336018 -14.18457031 1.83520508 C-15.78652027 1.82030098 -17.3884308 1.79997053 -18.99023438 1.77368164 C-38.15872297 1.18438137 -38.15872297 1.18438137 -55 9 C-54.72459296 12.81813447 -54.72459296 12.81813447 -53 16 C-51.12196829 15.93483171 -49.24629172 15.79680594 -47.375 15.625 C-46.35148437 15.53476562 -45.32796875 15.44453125 -44.2734375 15.3515625 C-42.16001636 15.1245841 -40.05183999 14.83690187 -37.95703125 14.4765625 C-32.07765114 13.76848316 -26.22926573 13.7749521 -20.3125 13.75 C-19.10916016 13.729375 -17.90582031 13.70875 -16.66601562 13.6875 C-8.26663834 13.65119799 0.3472589 14.17362945 8 18 C7.76879883 19.8918457 7.76879883 19.8918457 7 22 C0.34554322 25.71267063 -7.79934984 25.43618428 -15.1875 25.3125 C-16.28304199 25.3026709 -17.37858398 25.2928418 -18.50732422 25.28271484 C-28.05376815 25.13198893 -37.48246912 24.62314665 -46.69140625 21.9140625 C-50.30124468 20.91677538 -52.4175603 21.00024939 -56 22 C-56.66 22.66 -57.32 23.32 -58 24 C-57.9934389 27.03996532 -57.9934389 27.03996532 -57 30 C-54.51503941 31.88596054 -53.17580286 32.01443679 -50.05078125 31.7578125 C-48.81714844 31.54898438 -47.58351563 31.34015625 -46.3125 31.125 C-37.23150071 29.81163233 -28.15416696 29.76383888 -19 29.75 C-18.27890045 29.74518616 -17.5578009 29.74037231 -16.81484985 29.7354126 C-9.00334125 29.69083054 -1.52875211 29.69594224 6 32 C6.66 32.66 7.32 33.32 8 34 C7.625 36.125 7.625 36.125 7 38 C1.89134926 39.67441423 -2.71265501 40.30769353 -8.1015625 40.30078125 C-8.85988373 40.30506638 -9.61820496 40.3093515 -10.39950562 40.31376648 C-11.99793507 40.31947977 -13.5963905 40.32003231 -15.19482422 40.31567383 C-17.59780191 40.31253552 -19.99951971 40.33593403 -22.40234375 40.36132812 C-30.74714046 40.39383549 -38.28854166 39.89615679 -46.39331055 37.62695312 C-50.01993757 36.75468768 -52.43653104 36.97055341 -56 38 C-56.66 38.66 -57.32 39.32 -58 40 C-57.67028521 43.29714793 -57.3773161 44.6226839 -55 47 C-49.94384126 47.32620379 -45.47746006 46.96113205 -40.51171875 46.0078125 C-33.88138541 44.87501213 -27.40488694 44.61731695 -20.6875 44.625 C-19.5121167 44.62371094 -18.3367334 44.62242188 -17.12573242 44.62109375 C-8.19158494 44.7295433 -0.37627311 45.85714376 8 49 C8 50.32 8 51.64 8 53 C-0.60763896 55.74711882 -9.12891969 56.19585756 -18.125 56.1875 C-19.03862305 56.18669434 -19.95224609 56.18588867 -20.89355469 56.18505859 C-30.49076847 56.09927908 -39.79814168 55.10464948 -49.125 52.75 C-53.04803098 51.99070368 -54.59742697 52.02431243 -58 54 C-58.33397787 56.87413125 -58.33397787 56.87413125 -58 60 C-55.8993467 62.09587909 -54.69613628 62.96685065 -51.703125 63.109375 C-50.89359375 62.99078125 -50.0840625 62.8721875 -49.25 62.75 C-48.45078125 62.64171875 -47.6515625 62.5334375 -46.828125 62.421875 C-45.89484375 62.28265625 -44.9615625 62.1434375 -44 62 C-38.67790958 61.25769451 -33.47525773 60.83077394 -28.09765625 60.796875 C-27.37565536 60.79117493 -26.65365448 60.78547485 -25.90977478 60.77960205 C-24.3946984 60.77022945 -22.87960235 60.76364925 -21.36450195 60.75976562 C-19.07141126 60.7500378 -16.7792103 60.71893289 -14.48632812 60.6875 C0.10385876 60.57889753 0.10385876 60.57889753 7 64 C7.71850586 66.10839844 7.71850586 66.10839844 8 68 C0.45099573 71.18250569 -6.60223195 71.43251764 -14.69165039 71.33618164 C-16.7980826 71.31266099 -18.90323568 71.31562972 -21.00976562 71.32226562 C-30.14586256 71.30281371 -39.26325381 70.91224873 -48 68 C-52.71009725 67.57529738 -52.71009725 67.57529738 -57 69.1875 C-58.23204319 71.03085392 -58.23204319 71.03085392 -57.8125 73.5625 C-57.15372967 76.14441272 -57.15372967 76.14441272 -55 78 C-50.83506826 78.35446228 -47.32734707 77.88613114 -43.2578125 76.99609375 C-36.48802574 75.73720029 -29.79276752 75.73314669 -22.93774414 75.79418945 C-20.80538025 75.81256134 -18.67345091 75.81469753 -16.54101562 75.81445312 C2.24153375 75.86110238 2.24153375 75.86110238 8 80 C7.505 81.98 7.505 81.98 7 84 C-9.6171544 89.086884 -29.21739323 89.18460222 -45.73046875 83.77734375 C-49.53219253 82.87346916 -52.21093552 83.1163476 -56 84 C-56.99 84.99 -56.99 84.99 -58 86 C-57.9934389 89.03996532 -57.9934389 89.03996532 -57 92 C-55.36954287 93.60739458 -55.36954287 93.60739458 -53 94 C-50.11180001 93.59026926 -47.27024184 93.05592618 -44.4140625 92.46484375 C-29.72325279 89.68716965 -7.96430579 87.63127096 5.83203125 94.38671875 C6.54746094 94.91910156 7.26289062 95.45148438 8 96 C8 96.99 8 97.98 8 99 C-0.03143608 102.65065276 -8.78040481 102.24645039 -17.4309082 102.29516602 C-18.83953956 102.30662093 -20.24812977 102.32696881 -21.65649414 102.35668945 C-30.79668349 102.54874179 -38.31599917 101.79504916 -47.02709961 98.76635742 C-50.19372866 97.95006042 -51.90969596 98.03027338 -55 99 C-56.96040481 100.12640605 -56.96040481 100.12640605 -58 102 C-57.99843776 104.59117313 -57.99843776 104.59117313 -57 107 C-53.66213873 109.22524085 -53.19399907 109.18796456 -49.4375 108.6875 C-31.00617443 106.35710251 -10.99311019 104.41249073 7 110 C7.33 111.32 7.66 112.64 8 114 C-0.21292092 118.84351747 -9.53382778 118.19481814 -18.8125 118.1875 C-19.87331787 118.18669434 -20.93413574 118.18588867 -22.02709961 118.18505859 C-30.66069746 118.11736492 -38.60302036 117.41631372 -46.875 114.8125 C-50.3662056 113.90478654 -52.54320523 114.03531309 -56 115 C-58.20857238 116.82786272 -58.20857238 116.82786272 -58.4375 119.4375 C-58.24240423 122.16649392 -58.24240423 122.16649392 -55.9375 123.875 C-51.6116173 125.53172103 -48.23196924 124.54941945 -43.83886719 123.46801758 C-39.91426895 122.82100564 -36.05002933 122.79745975 -32.078125 122.76171875 C-30.788992 122.74961113 -30.788992 122.74961113 -29.47381592 122.73725891 C-27.65834545 122.72346232 -25.84284952 122.71272049 -24.02734375 122.70483398 C-22.18286462 122.6933222 -20.3384186 122.67288304 -18.49414062 122.64331055 C-15.81357441 122.60037735 -13.13399349 122.58443018 -10.453125 122.57421875 C-9.64031067 122.55671066 -8.82749634 122.53920258 -7.99005127 122.52116394 C-1.89530884 122.54390669 2.6269445 124.1761448 8 127 C8 127.99 8 128.98 8 130 C-0.13716772 133.11734081 -7.66492213 133.42480621 -16.3125 133.3125 C-17.54162109 133.31572266 -18.77074219 133.31894531 -20.03710938 133.32226562 C-27.18792858 133.28075691 -34.02884322 132.72178269 -41.07446289 131.49365234 C-49.60640816 129.87394489 -49.60640816 129.87394489 -58 131 C-58.41809201 133.83151973 -58.41809201 133.83151973 -58 137 C-54.78175791 140.40755044 -51.46619746 141.75361931 -47 143 C-47 143.66 -47 144.32 -47 145 C-53.07221564 143.8483729 -56.78688262 142.63442912 -61 138 C-61.625 134.9375 -61.625 134.9375 -61 132 C-59 129.75 -59 129.75 -57 128 C-57 127.34 -57 126.68 -57 126 C-57.66 125.4225 -58.32 124.845 -59 124.25 C-61 122 -61 122 -61.5 119.0625 C-60.89649521 115.36603315 -59.53641621 113.69494222 -57 111 C-57.680625 110.319375 -58.36125 109.63875 -59.0625 108.9375 C-61 106 -61 106 -60.9375 102.3125 C-60 99 -60 99 -57 97 C-57 96.34 -57 95.68 -57 95 C-57.66 94.4225 -58.32 93.845 -59 93.25 C-61 91 -61 91 -61.5 88.0625 C-60.89649521 84.36603315 -59.53641621 82.69494222 -57 80 C-57.66 79.278125 -58.32 78.55625 -59 77.8125 C-61 75 -61 75 -61.5 72.5 C-60.83950484 69.1975242 -59.243735 67.45408516 -57 65 C-57.680625 64.319375 -58.36125 63.63875 -59.0625 62.9375 C-61 60 -61 60 -60.75 56.1875 C-60.5025 55.135625 -60.255 54.08375 -60 53 C-58.35 52.34 -56.7 51.68 -55 51 C-55 50.34 -55 49.68 -55 49 C-55.61875 48.731875 -56.2375 48.46375 -56.875 48.1875 C-59 47 -59 47 -61 44 C-61.375 41.5625 -61.375 41.5625 -61 39 C-59.125 36.6875 -59.125 36.6875 -57 35 C-56.34 35 -55.68 35 -55 35 C-55 34.34 -55 33.68 -55 33 C-55.61875 32.896875 -56.2375 32.79375 -56.875 32.6875 C-59 32 -59 32 -61 29 C-61.4375 26.0625 -61.4375 26.0625 -61 23 C-58.625 20.625 -58.625 20.625 -56 19 C-55.34 19 -54.68 19 -54 19 C-54.66 18.29875 -55.32 17.5975 -56 16.875 C-58.34966143 13.49736169 -58.68543938 12.02695637 -58 8 C-47.0291341 -6.08976543 -15.27690831 -2.76115972 0 0 Z " fill="#1B1B1B" transform="translate(76,22)"/>
<path d="M0 0 C0.598125 0.226875 1.19625 0.45375 1.8125 0.6875 C1.1525 1.079375 0.4925 1.47125 -0.1875 1.875 C-2.40521551 3.53541624 -2.40521551 3.53541624 -2.75 6.1875 C-2.40153847 8.85344646 -2.40153847 8.85344646 -0.125 10.5625 C4.2008827 12.21922103 7.58053076 11.23691945 11.97363281 10.15551758 C15.89823105 9.50850564 19.76247067 9.48495975 23.734375 9.44921875 C25.023508 9.43711113 25.023508 9.43711113 26.33868408 9.42475891 C28.15415455 9.41096232 29.96965048 9.40022049 31.78515625 9.39233398 C33.62963538 9.3808222 35.4740814 9.36038304 37.31835938 9.33081055 C39.99892559 9.28787735 42.67850651 9.27193018 45.359375 9.26171875 C46.17218933 9.24421066 46.98500366 9.22670258 47.82244873 9.20866394 C53.91719116 9.23140669 58.4394445 10.8636448 63.8125 13.6875 C63.8125 14.6775 63.8125 15.6675 63.8125 16.6875 C55.67533228 19.80484081 48.14757787 20.11230621 39.5 20 C38.27087891 20.00322266 37.04175781 20.00644531 35.77539062 20.00976562 C28.62457142 19.96825691 21.78365678 19.40928269 14.73803711 18.18115234 C6.20609184 16.56144489 6.20609184 16.56144489 -2.1875 17.6875 C-2.60559201 20.51901973 -2.60559201 20.51901973 -2.1875 23.6875 C1.03074209 27.09505044 4.34630254 28.44111931 8.8125 29.6875 C8.8125 30.3475 8.8125 31.0075 8.8125 31.6875 C2.74028436 30.5358729 -0.97438262 29.32192912 -5.1875 24.6875 C-5.8125 21.625 -5.8125 21.625 -5.1875 18.6875 C-3.1875 16.4375 -3.1875 16.4375 -1.1875 14.6875 C-1.1875 14.0275 -1.1875 13.3675 -1.1875 12.6875 C-2.1775 11.82125 -2.1775 11.82125 -3.1875 10.9375 C-5.1875 8.6875 -5.1875 8.6875 -5.625 5.625 C-5.1875 2.6875 -5.1875 2.6875 -3.9375 0.75 C-2.1875 -0.3125 -2.1875 -0.3125 0 0 Z " fill="#242424" transform="translate(20.1875,135.3125)"/>
<path d="M0 0 C1.22589844 -0.020625 2.45179687 -0.04125 3.71484375 -0.0625 C11.78905011 -0.09674902 18.90300168 0.88142036 26.625 3.25 C26.295 4.24 25.965 5.23 25.625 6.25 C19.01018306 7.51978021 12.43966436 7.47253717 5.73242188 7.49023438 C3.52695141 7.4998821 1.32243765 7.53092595 -0.8828125 7.5625 C-9.41451774 7.62446492 -17.18403306 6.86024325 -25.375 4.25 C-25.375 3.59 -25.375 2.93 -25.375 2.25 C-24.32699219 2.15912109 -24.32699219 2.15912109 -23.2578125 2.06640625 C-22.34773438 1.98261719 -21.43765625 1.89882812 -20.5 1.8125 C-19.59507813 1.73128906 -18.69015625 1.65007812 -17.7578125 1.56640625 C-6.15027557 0.02507758 -6.15027557 0.02507758 0 0 Z " fill="#E5E5E5" transform="translate(54.375,114.75)"/>
<path d="M0 0 C1.69286133 -0.02416992 1.69286133 -0.02416992 3.41992188 -0.04882812 C11.16247236 -0.05328043 18.02516509 1.09056497 25.4375 3.3125 C25.4375 3.9725 25.4375 4.6325 25.4375 5.3125 C17.98257291 7.37555039 10.89081128 7.65311438 3.1730957 7.62817383 C1.1389357 7.6250216 -0.8937539 7.64851702 -2.92773438 7.67382812 C-11.2436568 7.67789062 -18.61443748 6.78591684 -26.5625 4.3125 C-26.5625 3.6525 -26.5625 2.9925 -26.5625 2.3125 C-17.65401793 0.70722737 -9.04698121 -0.02592258 0 0 Z " fill="#E9E9E9" transform="translate(55.5625,68.6875)"/>
<path d="M0 0 C2.11078936 0.00317485 4.22019168 -0.02044338 6.33081055 -0.0456543 C14.02205449 -0.07983159 20.84562319 0.45973319 28.04760742 3.31567383 C28.04760742 3.97567383 28.04760742 4.63567383 28.04760742 5.31567383 C19.91386706 7.10350025 12.11433143 7.66594225 3.79760742 7.62817383 C2.02776489 7.62624023 2.02776489 7.62624023 0.22216797 7.62426758 C-8.49501593 7.52844144 -16.55357564 6.67916 -24.95239258 4.31567383 C-24.95239258 3.65567383 -24.95239258 2.99567383 -24.95239258 2.31567383 C-16.64336351 0.39125731 -8.498667 -0.02669117 0 0 Z " fill="#E5E5E5" transform="translate(53.952392578125,37.684326171875)"/>
<path d="M0 0 C2.1920717 0.00316844 4.3828003 -0.02040643 6.57470703 -0.0456543 C14.3511314 -0.07899126 21.3808371 0.37924476 28.69580078 3.31567383 C27.69580078 5.31567383 27.69580078 5.31567383 25.96533203 5.94848633 C9.30363012 9.28612455 -7.78527676 7.52026849 -24.30419922 4.31567383 C-24.30419922 3.65567383 -24.30419922 2.99567383 -24.30419922 2.31567383 C-16.24277829 0.17665464 -8.27909171 -0.02499838 0 0 Z " fill="#E7E7E7" transform="translate(53.30419921875,99.684326171875)"/>
<path d="M0 0 C1.93939453 -0.02416992 1.93939453 -0.02416992 3.91796875 -0.04882812 C11.41884871 -0.05264343 17.85583837 0.59151963 24.875 3.3125 C24.875 3.9725 24.875 4.6325 24.875 5.3125 C16.52899243 6.95112387 8.50034796 7.66545979 0 7.625 C-1.13099121 7.62371094 -2.26198242 7.62242187 -3.42724609 7.62109375 C-11.66456434 7.5264799 -19.2099331 6.73019316 -27.125 4.3125 C-27.125 3.6525 -27.125 2.9925 -27.125 2.3125 C-18.03915675 0.4612091 -9.25848783 -0.02321587 0 0 Z " fill="#E8E8E8" transform="translate(57.125,130.6875)"/>
<path d="M0 0 C0 0.66 0 1.32 0 2 C-7.55213272 4.41514904 -14.87178573 4.29652489 -22.75 4.25 C-24.69132812 4.26160156 -24.69132812 4.26160156 -26.671875 4.2734375 C-35.61038843 4.2554163 -44.45895697 3.84701434 -53 1 C-53 0.34 -53 -0.32 -53 -1 C-16.28063241 -5.42687747 -16.28063241 -5.42687747 0 0 Z " fill="#EEEEEE" transform="translate(82,149)"/>
<path d="M0 0 C1.14815437 -0.00287018 1.14815437 -0.00287018 2.31950378 -0.00579834 C3.93053519 -0.0071519 5.5415778 -0.00351375 7.15258789 0.00488281 C9.58830946 0.01554985 12.02328609 0.00498236 14.45898438 -0.0078125 C22.50133066 -0.01398634 29.94751687 0.26658165 37.79296875 2.265625 C37.79296875 2.925625 37.79296875 3.585625 37.79296875 4.265625 C32.33135789 5.80350466 27.36209315 6.56434583 21.671875 6.53125 C20.92767807 6.53316345 20.18348114 6.5350769 19.41673279 6.53704834 C17.85455992 6.53839943 16.29237541 6.53477889 14.73022461 6.52636719 C12.36480983 6.51566725 10.00015699 6.5262912 7.63476562 6.5390625 C-7.06058463 6.55377702 -7.06058463 6.55377702 -14.20703125 4.265625 C-14.53703125 3.605625 -14.86703125 2.945625 -15.20703125 2.265625 C-10.05855746 0.57064728 -5.43239992 -0.03054749 0 0 Z " fill="#F0F0F0" transform="translate(44.20703125,53.734375)"/>
<path d="M0 0 C0.77063782 -0.00570007 1.54127563 -0.01140015 2.33526611 -0.01727295 C3.96242921 -0.02669135 5.58961111 -0.03324433 7.21679688 -0.03710938 C9.68133629 -0.04678942 12.14503183 -0.07783141 14.609375 -0.109375 C22.63042291 -0.16187996 29.48196604 -0.09808477 36.953125 3.203125 C32.96494476 7.19130524 26.68181177 6.37262982 21.31640625 6.40625 C20.59631882 6.41195007 19.87623138 6.41765015 19.13432312 6.42352295 C17.61568651 6.43292595 16.09702993 6.43948812 14.57836914 6.44335938 C12.28950074 6.45302418 10.00154737 6.48407432 7.71289062 6.515625 C-0.66099963 6.57435799 -8.0639269 6.07841746 -16.046875 3.203125 C-10.99120444 -0.16732204 -5.93126566 0.03436951 0 0 Z " fill="#EFEFEF" transform="translate(45.046875,84.796875)"/>
<path d="M0 0 C0.70286133 0.00104736 1.40572266 0.00209473 2.12988281 0.00317383 C22.68126716 0.06778577 22.68126716 0.06778577 28.5 4.25 C28.17 5.57 27.84 6.89 27.5 8.25 C11.82624639 13.04808784 -11.13864947 14.74184031 -26.5 8.25 C-26.83 7.26 -27.16 6.27 -27.5 5.25 C-29.15 4.92 -30.8 4.59 -32.5 4.25 C-32.5 3.92 -32.5 3.59 -32.5 3.25 C-21.72805674 0.27354199 -11.0958291 -0.03641682 0 0 Z M-26.5 4.25 C-26.5 4.91 -26.5 5.57 -26.5 6.25 C-10.60686129 9.3331955 9.81336304 12.98642254 25.5 7.25 C25.83 6.59 26.16 5.93 26.5 5.25 C18.480327 2.03068108 10.69672292 1.81589899 2.19580078 1.91381836 C0.00385729 1.9374584 -2.18686687 1.93435315 -4.37890625 1.92773438 C-11.93107707 1.94408245 -19.15583535 2.30129775 -26.5 4.25 Z " fill="#1A1A1A" transform="translate(55.5,97.75)"/>
<path d="M0 0 C2.17622271 0.01080011 4.35163284 -0.0000061 6.52783203 -0.01269531 C13.70664621 -0.02045973 20.49309002 0.1333668 27.41455078 2.26074219 C28.07455078 2.92074219 28.73455078 3.58074219 29.41455078 4.26074219 C29.03955078 6.38574219 29.03955078 6.38574219 28.41455078 8.26074219 C23.35710789 9.90981895 18.78673164 10.5796744 13.45361328 10.59667969 C12.33036148 10.60666489 12.33036148 10.60666489 11.18441772 10.61685181 C9.60278758 10.6269285 8.02111534 10.63167038 6.43945312 10.63134766 C4.08012724 10.63566789 1.72275873 10.6718888 -0.63623047 10.70996094 C-11.30958417 10.788423 -21.4161824 9.66096808 -31.58544922 6.26074219 C-31.91544922 5.60074219 -32.24544922 4.94074219 -32.58544922 4.26074219 C-30.93544922 4.26074219 -29.28544922 4.26074219 -27.58544922 4.26074219 C-27.58544922 3.60074219 -27.58544922 2.94074219 -27.58544922 2.26074219 C-18.32432099 0.49996467 -9.38851796 -0.05538949 0 0 Z M-25.58544922 4.26074219 C-25.25544922 4.92074219 -24.92544922 5.58074219 -24.58544922 6.26074219 C-16.67802229 8.79254517 -8.60800632 8.56584269 -0.39233398 8.52148438 C1.97519448 8.5107506 4.34196702 8.52143139 6.70947266 8.53417969 C8.2374691 8.53285816 9.76546507 8.5302959 11.29345703 8.52636719 C11.98951553 8.53041565 12.68557404 8.53446411 13.40272522 8.53863525 C18.39115249 8.49177201 22.64917651 7.60257564 27.41455078 6.26074219 C27.41455078 5.60074219 27.41455078 4.94074219 27.41455078 4.26074219 C18.78943881 2.06303924 10.50371514 1.95356353 1.66381836 2 C-0.77824466 2.01076553 -3.21957972 2.00003258 -5.66162109 1.98730469 C-7.23388832 1.98862568 -8.8061551 1.99118681 -10.37841797 1.99511719 C-11.09837448 1.99106873 -11.81833099 1.98702026 -12.56010437 1.98284912 C-17.29453072 2.02623558 -21.13534066 2.79567988 -25.58544922 4.26074219 Z " fill="#252525" transform="translate(54.58544921875,51.7392578125)"/>
<path d="M0 0 C0 0.66 0 1.32 0 2 C-0.98693848 1.98428955 -1.97387695 1.9685791 -2.99072266 1.95239258 C-6.72191912 1.89727843 -10.45308128 1.86336018 -14.18457031 1.83520508 C-15.78652027 1.82030098 -17.3884308 1.79997053 -18.99023438 1.77368164 C-36.50906422 1.36263511 -36.50906422 1.36263511 -52.875 6.875 C-55.25941618 8.83081553 -55.25941618 8.83081553 -55.375 11.75 C-55.25125 12.4925 -55.1275 13.235 -55 14 C-55.99 14 -56.98 14 -58 14 C-58.48741559 8.63842848 -58.48741559 8.63842848 -56.44921875 5.96875 C-42.69251954 -5.08926659 -16.19688881 -2.92743768 0 0 Z " fill="#272727" transform="translate(76,22)"/>
<path d="M0 0 C0.495 1.98 0.495 1.98 1 4 C-4.00932754 7.00559652 -7.32723489 7.29341888 -13 7 C-13 6.34 -13 5.68 -13 5 C-7.06 4.505 -7.06 4.505 -1 4 C-1 3.34 -1 2.68 -1 2 C-10.35386524 -0.32429379 -19.5443062 -0.43919261 -29.125 -0.625 C-30.76564391 -0.66326008 -32.40626946 -0.70231621 -34.046875 -0.7421875 C-38.03109768 -0.8373032 -42.01541389 -0.92164603 -46 -1 C-46 -1.33 -46 -1.66 -46 -2 C-31.72275623 -5.26467849 -13.95914655 -4.33481815 0 0 Z " fill="#181818" transform="translate(83,132)"/>
<path d="M0 0 C-0.33 1.32 -0.66 2.64 -1 4 C-8.54141551 6.49476119 -15.63668086 6.0245589 -23.5 5.625 C-24.799375 5.56828125 -26.09875 5.5115625 -27.4375 5.453125 C-30.62562249 5.31247254 -33.81285838 5.16114045 -37 5 C-37 4.67 -37 4.34 -37 4 C-36.21874756 3.98018066 -35.43749512 3.96036133 -34.63256836 3.93994141 C-31.06722682 3.84424528 -27.50243558 3.73474661 -23.9375 3.625 C-22.70837891 3.5940625 -21.47925781 3.563125 -20.21289062 3.53125 C-14.15596296 3.33533859 -8.71439565 3.08876869 -3 1 C-10.44751775 -1.31324415 -17.74185986 -1.43577707 -25.5 -1.625 C-26.799375 -1.66367188 -28.09875 -1.70234375 -29.4375 -1.7421875 C-32.62486286 -1.83593347 -35.8122279 -1.92164349 -39 -2 C-39 -2.33 -39 -2.66 -39 -3 C-35.3755729 -3.19984651 -31.75046556 -3.38255961 -28.125 -3.5625 C-27.11179687 -3.61857422 -26.09859375 -3.67464844 -25.0546875 -3.73242188 C-7.55651506 -4.57368017 -7.55651506 -4.57368017 0 0 Z " fill="#434343" transform="translate(84,87)"/>
<path d="M0 0 C2.475 0.495 2.475 0.495 5 1 C5 1.66 5 2.32 5 3 C6.24716797 3.09087891 6.24716797 3.09087891 7.51953125 3.18359375 C8.60621094 3.26738281 9.69289063 3.35117187 10.8125 3.4375 C11.89144531 3.51871094 12.97039063 3.59992187 14.08203125 3.68359375 C17 4 17 4 20 5 C22.20959253 5.15109093 24.42300047 5.24873801 26.63671875 5.31640625 C27.93544922 5.35830078 29.23417969 5.40019531 30.57226562 5.44335938 C31.94400761 5.48316987 33.31575244 5.52288216 34.6875 5.5625 C36.07097645 5.60570835 37.45444027 5.64932339 38.83789062 5.69335938 C42.22515719 5.79958028 45.61249799 5.90162358 49 6 C49 6.66 49 7.32 49 8 C12.13759355 8.56879678 12.13759355 8.56879678 1 3 C0.67 2.01 0.34 1.02 0 0 Z " fill="#292929" transform="translate(24,39)"/>
<path d="M0 0 C1.00893311 -0.00926514 2.01786621 -0.01853027 3.05737305 -0.02807617 C9.53181072 -0.00107508 15.51942618 0.72766392 21.8125 2.25 C21.8125 2.58 21.8125 2.91 21.8125 3.25 C20.76271973 3.24476318 19.71293945 3.23952637 18.63134766 3.23413086 C14.74382375 3.21605761 10.85630356 3.20455946 6.96875 3.19506836 C5.28482438 3.19003347 3.60090314 3.18320519 1.91699219 3.17456055 C-0.50066203 3.16245804 -2.91825856 3.15676332 -5.3359375 3.15234375 C-6.0911972 3.14718246 -6.84645691 3.14202118 -7.62460327 3.13670349 C-11.53398109 3.05679812 -11.53398109 3.05679812 -15.1875 4.25 C-16.82821928 4.47795585 -18.47556386 4.65990899 -20.125 4.8125 C-21.00027344 4.89628906 -21.87554687 4.98007813 -22.77734375 5.06640625 C-25.1875 5.25 -25.1875 5.25 -28.1875 5.25 C-24.94300977 1.31565139 -21.39140414 1.24896069 -16.53125 0.59765625 C-11.03118765 0.07870732 -5.52095754 0.03174667 0 0 Z " fill="#282828" transform="translate(54.1875,112.75)"/>
<path d="M0 0 C29.13902594 -0.82555811 29.13902594 -0.82555811 42 4 C42 5.32 42 6.64 42 8 C40.56666979 8.39063507 39.12807321 8.76198474 37.6875 9.125 C36.48673828 9.43824219 36.48673828 9.43824219 35.26171875 9.7578125 C33 10 33 10 30 8 C34.455 7.505 34.455 7.505 39 7 C39 6.34 39 5.68 39 5 C30.26791145 3.36398801 21.61001706 2.46181981 12.75 1.875 C11.51636719 1.78863281 10.28273438 1.70226562 9.01171875 1.61328125 C6.0081268 1.40372832 3.00428088 1.19938783 0 1 C0 0.67 0 0.34 0 0 Z " fill="#262626" transform="translate(42,67)"/>
<path d="M0 0 C0.33 0.66 0.66 1.32 1 2 C0.484375 2.53625 -0.03125 3.0725 -0.5625 3.625 C-2.23651484 5.97565155 -2.23651484 5.97565155 -2.1875 9.0625 C-1.326331 12.070201 -1.326331 12.070201 0.859375 13.05078125 C2.89021446 13.81054566 4.90198081 14.45518408 7 15 C5.50011061 17.99977878 2.94840874 18.55588143 0 20 C-0.66 20.66 -1.32 21.32 -2 22 C-1.64700993 25.44165321 -0.95418308 27.06872538 1 30 C-0.875 29.6875 -0.875 29.6875 -3 29 C-5 26 -5 26 -4.8125 22.4375 C-4 19 -4 19 -1 17 C-1 16.34 -1 15.68 -1 15 C-1.99 14.13375 -1.99 14.13375 -3 13.25 C-5 11 -5 11 -5.5625 8.0625 C-4.82656896 4.05576432 -3.0478257 2.59065185 0 0 Z " fill="#202020" transform="translate(20,102)"/>
<path d="M0 0 C4.39243685 -0.09976706 8.78425272 -0.17188558 13.17749023 -0.21972656 C14.66816718 -0.23969458 16.1587673 -0.2668792 17.64916992 -0.30175781 C26.27851539 -0.49847102 33.28887852 -0.41629054 41 4 C41 4.99 41 5.98 41 7 C39.68 7.33 38.36 7.66 37 8 C37.66 6.68 38.32 5.36 39 4 C26.00692249 2.4861007 13.07014054 1.52335652 0 1 C0 0.67 0 0.34 0 0 Z " fill="#141414" transform="translate(43,145)"/>
<path d="M0 0 C0.99 0.33 1.98 0.66 3 1 C2.67 2.32 2.34 3.64 2 5 C-2.92458583 6.59641649 -7.01593201 7.24020659 -12.24609375 7.1953125 C-12.90207047 7.1924826 -13.55804718 7.18965271 -14.23390198 7.18673706 C-16.30196409 7.17565984 -18.36957173 7.15058063 -20.4375 7.125 C-21.85090515 7.11495402 -23.26431717 7.10583102 -24.67773438 7.09765625 C-28.11863394 7.07576184 -31.55927252 7.04132051 -35 7 C-35 6.67 -35 6.34 -35 6 C-34.4423999 5.98018066 -33.8847998 5.96036133 -33.31030273 5.93994141 C-21.7621408 5.51051823 -10.42133504 4.80706223 1 3 C0.505 1.515 0.505 1.515 0 0 Z " fill="#131313" transform="translate(81,55)"/>
<path d="M0 0 C1.32 0.33 2.64 0.66 4 1 C3.67 2.32 3.34 3.64 3 5 C-1.99665722 6.62708049 -6.15481395 7.23937914 -11.46484375 7.1953125 C-12.48210289 7.19106766 -12.48210289 7.19106766 -13.51991272 7.18673706 C-15.65929766 7.17565416 -17.7982443 7.1505736 -19.9375 7.125 C-21.39908244 7.11495476 -22.86067153 7.10583163 -24.32226562 7.09765625 C-27.88164979 7.07575425 -31.44078203 7.04130866 -35 7 C-35 6.67 -35 6.34 -35 6 C-34.30028076 5.98018066 -33.60056152 5.96036133 -32.87963867 5.93994141 C-29.64860628 5.84352448 -26.41812033 5.73432725 -23.1875 5.625 C-22.08728516 5.5940625 -20.98707031 5.563125 -19.85351562 5.53125 C-12.73807308 5.27937593 -5.96345589 4.4894812 1 3 C0.505 1.515 0.505 1.515 0 0 Z " fill="#0F0F0F" transform="translate(80,101)"/>
<path d="M0 0 C5.28 0.66 10.56 1.32 16 2 C16 2.33 16 2.66 16 3 C22.93 3.33 29.86 3.66 37 4 C37 4.33 37 4.66 37 5 C32.89597283 5.08832196 28.79219544 5.14083048 24.6875 5.1875 C23.53958984 5.21263672 22.39167969 5.23777344 21.20898438 5.26367188 C13.65353819 5.32788247 7.16480287 4.41795059 0 2 C0 1.34 0 0.68 0 0 Z " fill="#4D4D4D" transform="translate(32,104)"/>
<path d="M0 0 C-3.6270354 1.25551225 -6.26622078 0.6271473 -10 0 C-12.16207099 -0.14049619 -14.32675912 -0.2442253 -16.4921875 -0.31640625 C-17.69101563 -0.35830078 -18.88984375 -0.40019531 -20.125 -0.44335938 C-21.3625 -0.48267578 -22.6 -0.52199219 -23.875 -0.5625 C-25.13570312 -0.60568359 -26.39640625 -0.64886719 -27.6953125 -0.69335938 C-30.79677423 -0.79909102 -33.89831145 -0.90118571 -37 -1 C-37 -1.33 -37 -1.66 -37 -2 C-33.3755729 -2.19984651 -29.75046556 -2.38255961 -26.125 -2.5625 C-25.11179687 -2.61857422 -24.09859375 -2.67464844 -23.0546875 -2.73242188 C-6.33783034 -3.53611693 -6.33783034 -3.53611693 0 0 Z " fill="#464646" transform="translate(82,55)"/>
<path d="M0 0 C0 0.66 0 1.32 0 2 C-4.62 2.66 -9.24 3.32 -14 4 C-14 4.66 -14 5.32 -14 6 C-13.01 6 -12.02 6 -11 6 C-11 6.66 -11 7.32 -11 8 C-12.32 7.67 -13.64 7.34 -15 7 C-15 6.34 -15 5.68 -15 5 C-16.65 4.67 -18.3 4.34 -20 4 C-20 3.67 -20 3.34 -20 3 C-17.41747107 2.49550598 -14.83411297 1.99625699 -12.25 1.5 C-11.52039062 1.35691406 -10.79078125 1.21382813 -10.0390625 1.06640625 C-6.60656468 0.41111121 -3.50830509 0 0 0 Z " fill="#2E2E2E" transform="translate(43,98)"/>
<path d="M0 0 C-2.475 1.485 -2.475 1.485 -5 3 C-3.68 3.66 -2.36 4.32 -1 5 C-4.30435084 6.12377697 -6.0506862 5.89554742 -9.25 4.5625 C-9.95640625 4.27503906 -10.6628125 3.98757812 -11.390625 3.69140625 C-11.92171875 3.46324219 -12.4528125 3.23507813 -13 3 C-10 2 -10 2 -8 2 C-8 1.34 -8 0.68 -8 0 C-4.94736336 -0.98120464 -3.05263664 -0.98120464 0 0 Z " fill="#2F2F2F" transform="translate(35,54)"/>
<path d="M0 0 C2.475 0.495 2.475 0.495 5 1 C5 1.66 5 2.32 5 3 C8.96 3.33 12.92 3.66 17 4 C17 4.99 17 5.98 17 7 C11.15231932 6.47788565 6.36301015 5.44628533 1 3 C0.67 2.01 0.34 1.02 0 0 Z " fill="#363636" transform="translate(24,39)"/>
<path d="M0 0 C1 3 1 3 0.375 5.5 C-0.26927611 7.97729432 -0.26927611 7.97729432 1.0625 9.75 C3.63507013 11.40972267 5.9871402 11.6652378 9 12 C9 12.33 9 12.66 9 13 C6.14133991 13.23822167 3.80180916 13.42775712 1 13 C-1.79816435 10.5516062 -2.82689803 9.03861182 -3.4375 5.375 C-2.93046696 2.62253491 -2.16305574 1.71241913 0 0 Z " fill="#161616" transform="translate(18,58)"/>
<path d="M0 0 C0 0.33 0 0.66 0 1 C-0.969375 1.12375 -1.93875 1.2475 -2.9375 1.375 C-4.4534375 1.684375 -4.4534375 1.684375 -6 2 C-6.33 2.66 -6.66 3.32 -7 4 C-6.01 4.33 -5.02 4.66 -4 5 C-7.46941546 4.54177532 -10.67395049 4.10868317 -14 3 C-14 2.34 -14 1.68 -14 1 C-9.23692563 0.04738513 -4.8333472 -0.08333357 0 0 Z " fill="#BCBCBC" transform="translate(43,147)"/>
<path d="M0 0 C-0.33 0.99 -0.66 1.98 -1 3 C-2.60397277 3.16852247 -4.2081869 3.33474886 -5.8125 3.5 C-6.70582031 3.5928125 -7.59914063 3.685625 -8.51953125 3.78125 C-11 4 -11 4 -14 4 C-12.14737269 1.632754 -11.10277401 1.02457639 -8.125 0.3125 C-5.38423875 0.03842388 -2.75093571 -0.08090987 0 0 Z " fill="#393939" transform="translate(40,114)"/>
<path d="M0 0 C1.95918968 0.05991406 3.91751529 0.14867138 5.875 0.25 C6.96554688 0.29640625 8.05609375 0.3428125 9.1796875 0.390625 C12 1 12 1 13.3828125 3.046875 C13.58648437 3.69140625 13.79015625 4.3359375 14 5 C12.22739369 4.54857225 10.4569632 4.08859477 8.6875 3.625 C7.20830078 3.24214844 7.20830078 3.24214844 5.69921875 2.8515625 C3 2 3 2 0 0 Z " fill="#383838" transform="translate(67,98)"/>
<path d="M0 0 C0 0.33 0 0.66 0 1 C-1.98 1.33 -3.96 1.66 -6 2 C-6 2.66 -6 3.32 -6 4 C-8.31 3.67 -10.62 3.34 -13 3 C-13 2.34 -13 1.68 -13 1 C-8.59085217 -0.10228696 -4.51617599 -0.07654536 0 0 Z " fill="#C2C2C2" transform="translate(42,70)"/>
<path d="M0 0 C0.598125 0.226875 1.19625 0.45375 1.8125 0.6875 C0.8534375 1.2753125 0.8534375 1.2753125 -0.125 1.875 C-2.62528819 4.07222296 -2.83700425 5.44541433 -3.1875 8.6875 C-3.8475 8.6875 -4.5075 8.6875 -5.1875 8.6875 C-5.55003776 3.24943353 -5.55003776 3.24943353 -3.9375 0.75 C-2.1875 -0.3125 -2.1875 -0.3125 0 0 Z " fill="#111111" transform="translate(20.1875,135.3125)"/>
<path d="M0 0 C0.33 0.66 0.66 1.32 1 2 C-3.16138263 2.08159574 -6.9472484 1.98248524 -11 1 C-6.78915963 -1.80722691 -4.88445782 -0.94537893 0 0 Z " fill="#2B2B2B" transform="translate(44,137)"/>
<path d="M0 0 C0.66 0 1.32 0 2 0 C2.433125 1.3921875 2.433125 1.3921875 2.875 2.8125 C3.8875 6.09791667 3.8875 6.09791667 6 9 C4.125 8.6875 4.125 8.6875 2 8 C-0.1519437 4.77208445 -0.20086443 3.71599191 0 0 Z " fill="#0C0C0C" transform="translate(15,123)"/>
<path d="M0 0 C3.3 0.33 6.6 0.66 10 1 C9.67 1.66 9.34 2.32 9 3 C5.7 2.67 2.4 2.34 -1 2 C-0.67 1.34 -0.34 0.68 0 0 Z " fill="#252525" transform="translate(68,83)"/>
<path d="M0 0 C0 0.66 0 1.32 0 2 C0.66 2.66 1.32 3.32 2 4 C-4.15234375 3.4140625 -4.15234375 3.4140625 -6 3 C-6.33 2.34 -6.66 1.68 -7 1 C-4 0 -4 0 0 0 Z " fill="#C1C1C1" transform="translate(36,55)"/>
<path d="M0 0 C2.64 0.99 5.28 1.98 8 3 C7.67 3.66 7.34 4.32 7 5 C4.69 5 2.38 5 0 5 C0 3.35 0 1.7 0 0 Z " fill="#0C0C0C" transform="translate(20,100)"/>
<path d="M0 0 C2.62187494 1.04874998 3.79371361 1.64931313 5.25 4.125 C5.4975 4.74375 5.745 5.3625 6 6 C4.35 6.33 2.7 6.66 1 7 C1 6.34 1 5.68 1 5 C1.66 5 2.32 5 3 5 C2.01 3.35 1.02 1.7 0 0 Z " fill="#080808" transform="translate(19,36)"/>
<path d="M0 0 C2.31 0 4.62 0 7 0 C6.67 0.99 6.34 1.98 6 3 C3.03 2.505 3.03 2.505 0 2 C0 1.34 0 0.68 0 0 Z " fill="#C0C0C0" transform="translate(29,117)"/>
<path d="M0 0 C0.99 0 1.98 0 3 0 C3 0.66 3 1.32 3 2 C4.65 2.33 6.3 2.66 8 3 C8 3.33 8 3.66 8 4 C5.36 3.67 2.72 3.34 0 3 C0 2.01 0 1.02 0 0 Z " fill="#161616" transform="translate(25,86)"/>
<path d="M0 0 C0.66 0.66 1.32 1.32 2 2 C1.01 2.33 0.02 2.66 -1 3 C-2.20882096 5.00016466 -2.20882096 5.00016466 -3 7 C-3.33 6.01 -3.66 5.02 -4 4 C-2.68 2.68 -1.36 1.36 0 0 Z " fill="#262626" transform="translate(19,73)"/>
<path d="M0 0 C3.69900008 0.88776002 7.34550461 1.94581864 11 3 C11 3.33 11 3.66 11 4 C5.62694301 4.35233161 5.62694301 4.35233161 3 4 C1 2 1 2 0 0 Z " fill="#2C2C2C" transform="translate(16,67)"/>
<path d="M0 0 C0.66 0 1.32 0 2 0 C1.690625 0.598125 1.38125 1.19625 1.0625 1.8125 C-0.10209704 4.08956772 -0.10209704 4.08956772 -1 7 C-1.66 7 -2.32 7 -3 7 C-2.25 2.25 -2.25 2.25 0 0 Z " fill="#151515" transform="translate(18,42)"/>
</svg>
