<svg fill="#000" width="800" height="800" viewBox="144 144 512 512" xmlns="http://www.w3.org/2000/svg"><path d="m382.87 504.29c2.5195 1.0078 5.543 1.0078 8.0625-.50391-2.5195-.50391-5.0391.0-8.0625.50391m16.121-156.18c-2.5195-.50391-5.543-.50391-8.5664.50391 3.0234.50391 5.543.50391 8.5664-.50391m8.5664 84.641c-8.5664 4.5352-17.129 3.5273-25.695 5.0391 5.543 2.5195 22.168.0 25.695-5.0391m7.5586-155.17c-8.0625 4.5352-17.129 3.0234-26.199 4.5352 5.543 2.5195 22.168.0 26.199-4.5352m-38.793 255.43c8.0625 2.5195 16.121 3.5273 24.688 2.0156-4.5352-1.0078-8.5664-2.0156-12.594-2.5195-4.0312-1.0078-8.0625-1.0078-12.09.50391m21.664-61.465c-6.0469-2.5195-13.098-3.5273-20.152-2.5195-.50391.0-1.0078.0-1.0078.50391s.50391 1.0078 1.0078 1.0078c6.5508 2.5195 13.602 2.5195 20.152 1.0078m8.0625-155.68c-6.5508-3.0234-14.105-3.5273-21.16-1.5117 6.5508 2.5195 14.105 3.0234 21.16 1.5117m9.5742 59.953c-6.0469 5.0391-11.586 2.0156-17.633 1.0078h-1.0078c-4.5352-.50391-9.0703-.50391-13.098.50391 6.5508 3.5273 26.703 3.0234 31.738-1.5117m-9.0703 32.242c-8.0625-3.5273-17.129-5.0391-26.199-4.5352 8.5664 3.5273 17.129 5.0391 26.199 4.5352m-7.0547 156.18c-5.0391-3.5273-23.68-6.5508-27.207-4.5352 8.5664 3.0234 18.137 4.5352 27.207 4.5352m9.5742-320.93c-3.5273 1.0078-7.0547 2.0156-10.578 2.0156-4.5352.50391-9.0703 2.0156-13.098 4.0312-1.0078.50391-2.0156 1.0078-2.0156 2.0156s1.5117 1.0078 2.5195 1.0078c6.0469-.50391 12.09-2.0156 17.633-5.0391 2.5195-1.0078 4.0312-2.0156 5.543-4.0312m9.0703 32.242c4.0312-2.0156 7.5586-5.0391 9.5742-8.5664 2.5195-4.0312 2.5195-9.0703-1.0078-12.594-2.0156-2.0156-2.5195-3.0234-1.0078-5.543-8.5664 8.5664-18.641 14.609-30.23 17.129 1.5117.50391 3.0234.50391 4.5352.50391 5.543-.50391 11.082.50391 16.121 2.0156 5.543 2.0156 5.543 2.5195 2.0156 6.5508.50391.0.50391.0.0.50391m-12.594 287.68c5.0391-1.0078 9.5742-4.0312 12.09-8.5664.50391-1.5117.0-3.5273-1.0078-5.0391-.50391-.50391-1.0078-1.5117-1.5117-2.0156-3.5273-4.0312-3.5273-4.0312.50391-7.5586-.50391 1.0078-1.5117 1.0078-2.5195 1.5117l-.011719.007812c-13.582 7.0508-29.746 7.0508-43.328.0-3.5273-1.5117-6.5508-4.0312-8.0625-7.5586-2.0156-3.5273-1.0078-8.0625 2.5195-10.078.50391-.50391 1.0078-.50391 1.5117-.50391 4.5352-2.0156 9.0703-2.5195 14.105-2.5195 9.5742.50391 18.641 2.5195 27.711 6.5508.50391.50391 1.5117.50391 2.0156 1.0078 2.0156 3.5273 3.5273 1.5117 5.543.0 2.5195-1.5117 5.0391-3.0234 7.5586-5.0391 2.0156-2.0156 2.0156-5.0391.0-6.5508l-.50391-.50391c-1.5117-2.0156-4.5352-2.5195-5.543-4.5352-2.0156-3.5273-3.5273-1.5117-6.0469-.50391-7.5586 3.5273-15.617 6.0469-24.184 7.0547-6.5508.50391-12.594-1.0078-18.137-4.5352-4.0312-2.5195-6.0469-7.0547-5.0391-11.586 1.0078-4.5352 4.5352-7.5586 8.5664-8.0625 7.5586-2.0156 15.113-3.5273 22.672-4.0312 6.5508-.50391 13.602 1.0078 19.145 5.0391.50391.50391 1.0078.50391 1.5117.0 3.0234-2.0156 4.5352-6.0469 2.5195-9.0703-1.0078-1.5117-2.5195-2.5195-3.0234-4.5352-.50391-1.5117-1.5117-.50391-2.0156.0-9.0703 4.0312-18.641 5.543-28.215 3.5273-5.543-1.0078-10.578-2.5195-15.617-5.543-3.5273-1.5117-6.0469-4.5352-8.0625-8.0625-2.0156-4.0312-.50391-9.5742 3.5273-11.586.50391.0 1.0078-.50391 1.5117-.50391 5.543-2.5195 12.09-3.0234 18.137-2.5195 8.5664.50391 17.129 3.0234 25.191 6.5508.50391.0 1.0078.50391 1.5117.50391 2.5195 3.5273 5.0391 1.5117 7.5586-.50391 2.5195-1.5117 5.0391-3.5273 7.0547-5.543 2.0156-2.0156 1.5117-5.543-.50391-7.5586-2.5195-3.0234-6.0469-3.5273-8.0625-7.0547-.50391-.50391-1.5117.0-2.0156.0l-7.5586 3.0234c-9.5742 5.543-20.656 7.0547-31.234 4.5352-6.0469-1.0078-11.586-5.543-13.098-11.586-1.0078-4.0312.50391-8.0625 3.5273-10.578 4.5352-3.5273 10.078-5.543 16.121-6.0469 6.0469-1.0078 11.586-1.0078 17.633-1.0078 4.0312.50391 7.5586 1.0078 11.082 2.5195 4.0312 1.5117 4.0312 2.5195 1.0078 5.543l-1.0078 1.0078c4.5352-1.5117 7.5586-6.0469 6.0469-10.578.0-.50391-.50391-1.0078-.50391-1.5117-.50391-1.0078-1.0078-1.5117-2.0156-1.5117h-3.0234c-11.082 1.5117-22.168.50391-32.746-3.0234-6.0469-1.0078-11.082-6.0469-12.09-12.09-1.0078-5.543.50391-8.0625 6.0469-9.0703 11.586-2.0156 23.68-1.0078 34.258 4.0312 2.5195 1.0078 5.543 3.0234 8.0625 4.0312.50391.50391 1.5117 1.0078 2.0156 1.5117 1.5117 4.0312 3.0234 1.5117 4.5352.50391 5.543-4.0312 6.0469-7.5586 1.5117-12.09-4.0312-4.0312-2.5195-4.5352 1.0078-6.5508.50391.0.50391-.50391.50391-1.0078-1.0078.50391-2.5195 1.0078-3.5273 1.5117-14.105 7.0547-30.73 7.0547-44.336-.50391-2.5195-1.5117-5.0391-3.5273-6.5508-6.0469-2.5195-3.5273-1.5117-8.5664 2.0156-11.082 1.0078-.50391 1.5117-1.0078 2.5195-1.0078 5.543-2.0156 11.586-2.5195 17.129-2.0156 8.0625.50391 16.121 3.0234 23.68 6.5508.50391.0 1.0078.50391 1.5117.50391 2.0156 3.5273 4.0312 1.5117 6.0469.0 2.5195-1.0078 4.5352-2.5195 6.5508-4.5352 2.0156-1.5117 2.5195-5.0391.50391-7.0547l-1.0078-1.0078c-1.5117-1.5117-4.5352-2.5195-5.543-4.0312-2.0156-3.5273-4.0312-1.5117-6.0469-.50391-7.5586 3.5273-15.617 6.0469-23.68 7.0547-6.5508.50391-12.594-1.0078-18.137-4.5352-4.0312-2.5195-6.0469-7.0547-5.543-11.586 1.0078-4.5352 4.5352-7.5586 9.0703-8.0625 7.5586-2.0156 15.113-3.5273 22.672-4.0312 6.5508-.50391 13.098 1.0078 18.641 5.0391.50391.50391 1.0078.50391 1.5117.0 3.0234-2.0156 4.5352-6.0469 2.5195-9.0703.0-.50391-.50391-.50391-.50391-1.0078-1.0078-1.0078-2.0156-2.0156-2.5195-3.5273-.50391-1.5117-1.5117-.50391-2.0156.0-7.0547 3.5273-15.113 5.0391-23.176 4.5352-7.5586-.50391-15.617-2.5195-22.168-6.5508-3.0234-1.5117-5.543-4.5352-7.0547-7.5586-2.0156-4.0312-.50391-9.0703 3.5273-11.586.50391.0.50391-.50391 1.0078-.50391 4.5352-2.0156 9.5742-3.0234 14.609-3.0234 10.078.0 19.648 2.5195 28.719 6.5508.50391.50391 1.5117.50391 2.0156 1.0078 2.5195 3.5273 4.5352 1.5117 7.0547.0s4.5352-3.0234 6.5508-5.0391c2.5195-2.0156 2.5195-6.0469.0-8.0625l-.50391-.50391c-2.5195-2.5195-6.0469-3.0234-7.5586-6.0469-.50391-.50391-1.5117.0-2.0156.0l-7.5586 3.0234c-9.5742 5.543-20.656 7.0547-31.234 4.5352-6.0469-1.0078-11.586-5.543-13.098-11.586-1.0078-4.0312.50391-8.0625 3.5273-10.578 3.0234-2.5195 7.0547-4.5352 11.082-5.0391 2.0156-.50391 4.0312-1.0078 5.543-2.0156h-8.0625c-5.543.0-10.578-2.5195-13.602-6.5508-2.5195-4.0312-2.0156-8.5664.0-12.594 4.5352-7.0547 12.09-12.09 20.656-14.105 9.5742-2.5195 19.145-2.0156 28.215 2.0156 4.0312 1.5117 5.0391.0 6.5508-2.5195 2.0156-3.0234 4.0312-6.0469 5.0391-9.5742 1.0078-2.5195.50391-5.0391-1.0078-7.0547-1.0078-1.0078-.50391-2.5195.50391-3.0234 1.0078-1.0078 1.5117-2.0156 2.5195-2.5195 3.0234-3.5273 4.5352-3.5273 6.0469 1.0078 2.0156 4.5352 2.5195 10.078 1.0078 14.609-.50391 4.5352-2.5195 9.0703-5.0391 12.594-1.5117 2.0156-3.0234 3.5273 1.0078 5.0391 4.5352 2.0156 7.0547 6.5508 7.5586 11.586 1.5117 9.0703-1.5117 18.137-8.5664 24.184-1.5117 1.5117-1.5117 2.0156.50391 4.0312 7.5586 7.0547 10.078 13.098 6.5508 22.672-1.5117 5.0391-4.5352 9.5742-8.5664 13.098-1.5117 1.5117-1.0078 2.0156.0 3.0234 6.0469 4.5352 7.5586 13.098 3.5273 19.648-2.0156 2.5195-4.0312 4.5352-6.0469 6.5508 2.0156 1.5117 4.0312 3.0234 5.543 5.0391 4.0312 4.5352 5.0391 11.586 2.5195 17.129-1.5117 4.5352-4.5352 8.5664-8.5664 11.586-1.0078 1.0078-1.5117 1.5117.0 2.5195 7.0547 5.543 8.5664 16.121 2.5195 23.68-1.5117 1.5117-3.0234 3.0234-5.0391 4.0312-2.5195 1.5117-5.0391 3.0234-8.0625 5.0391 2.0156.0 2.5195-1.0078 4.0312-1.5117 3.0234-1.0078 4.5352-.50391 5.0391 2.5195 2.0156 5.543 1.5117 11.586-2.0156 16.625-1.0078 1.0078-1.0078 3.0234.50391 4.0312 1.5117 1.5117 3.0234 3.0234 4.0312 4.5352 4.0312 4.5352 5.0391 11.082 3.0234 17.129-1.5117 5.543-4.5352 10.078-8.5664 14.105-1.5117 1.5117-1.5117 2.0156.0 3.5273 6.0469 4.5352 7.5586 12.594 3.5273 19.145-2.0156 3.0234-5.0391 5.543-8.0625 7.5586-1.5117.50391-2.5195 1.5117-3.0234 2.5195.50391.0 1.5117-.50391 2.0156-1.0078 3.0234-3.0234 4.0312-2.5195 7.5586 1.5117 7.0547 8.5664 6.0469 20.656-2.0156 28.215-.50391.50391-1.0078 1.0078-1.5117 1.0078-2.0156 1.5117-2.5195 2.0156-.50391 4.0312 8.5664 7.5586 7.0547 19.648-2.5195 26.703-4.0312 3.0234-4.0312 3.0234-1.0078 7.0547 1.5117 2.5195 3.0234 5.0391 4.0312 7.5586.50391 1.5117.50391 3.5273.0 5.543-.50391 2.0156-1.5117 4.5352-4.0312 5.0391-2.5195.50391-3.5273-1.5117-4.5352-3.0234-3.0234-4.5352-6.0469-9.0703-9.5742-13.098-1.0078-.50391-1.5117-1.5117-2.5195-1.0078-3.5273 1.0078-7.5586 1.0078-11.586.0-8.5664-1.5117-16.625-3.5273-24.184-7.0547-5.0391-3.0234-8.0625-8.5664-7.0547-14.609.50391-2.0156 2.5195-4.0312 4.5352-4.5352 4.5352-1.5117 9.0703-1.5117 13.602-.50391 10.078 2.0156 20.152 5.543 29.223 10.578 3.0234 1.0078 2.0156 2.0156.50391 3.5273"/></svg>