<svg xmlns="http://www.w3.org/2000/svg" width="300" height="280" viewBox="0 0 300 280"><rect width="100%" height="100%" fill="white"/><g font-family="Microsoft YaHei,SimSun,serif"><path d="M90,35 L90,225" fill="none" stroke="#222" stroke-width="1.6"/><path d="M90,35 L215,35" fill="none" stroke="#222" stroke-width="1.6"/><path d="M55,225 L240,225" fill="none" stroke="#222" stroke-width="1.6"/><path d="M160,35 L160,50 l-9,6 18,8 -18,8 18,8 -18,8 18,8 -18,8 18,8 -9,5 L160,145" fill="none" stroke="#222" stroke-width="2"/><rect x="149" y="145" width="22" height="18" fill="white" stroke="#222" stroke-width="1.6"/><rect x="149" y="169" width="22" height="18" fill="white" stroke="#222" stroke-width="1.6"/><path d="M210,55 L210,210" fill="none" stroke="#222" stroke-width="1.6"/><path d="M210,55 L218,55" fill="none" stroke="#222" stroke-width="1.6"/><path d="M210,60 L215,60" fill="none" stroke="#222" stroke-width="1.6"/><path d="M210,65 L215,65" fill="none" stroke="#222" stroke-width="1.6"/><path d="M210,70 L215,70" fill="none" stroke="#222" stroke-width="1.6"/><path d="M210,75 L215,75" fill="none" stroke="#222" stroke-width="1.6"/><path d="M210,80 L218,80" fill="none" stroke="#222" stroke-width="1.6"/><path d="M210,85 L215,85" fill="none" stroke="#222" stroke-width="1.6"/><path d="M210,90 L215,90" fill="none" stroke="#222" stroke-width="1.6"/><path d="M210,95 L215,95" fill="none" stroke="#222" stroke-width="1.6"/><path d="M210,100 L215,100" fill="none" stroke="#222" stroke-width="1.6"/><path d="M210,105 L218,105" fill="none" stroke="#222" stroke-width="1.6"/><path d="M210,110 L215,110" fill="none" stroke="#222" stroke-width="1.6"/><path d="M210,115 L215,115" fill="none" stroke="#222" stroke-width="1.6"/><path d="M210,120 L215,120" fill="none" stroke="#222" stroke-width="1.6"/><path d="M210,125 L215,125" fill="none" stroke="#222" stroke-width="1.6"/><path d="M210,130 L218,130" fill="none" stroke="#222" stroke-width="1.6"/><path d="M210,135 L215,135" fill="none" stroke="#222" stroke-width="1.6"/><path d="M210,140 L215,140" fill="none" stroke="#222" stroke-width="1.6"/><path d="M210,145 L215,145" fill="none" stroke="#222" stroke-width="1.6"/><path d="M210,150 L215,150" fill="none" stroke="#222" stroke-width="1.6"/><path d="M210,155 L218,155" fill="none" stroke="#222" stroke-width="1.6"/><path d="M210,160 L215,160" fill="none" stroke="#222" stroke-width="1.6"/><path d="M210,165 L215,165" fill="none" stroke="#222" stroke-width="1.6"/><path d="M210,170 L215,170" fill="none" stroke="#222" stroke-width="1.6"/><path d="M210,175 L215,175" fill="none" stroke="#222" stroke-width="1.6"/><path d="M210,180 L218,180" fill="none" stroke="#222" stroke-width="1.6"/><path d="M210,185 L215,185" fill="none" stroke="#222" stroke-width="1.6"/><path d="M210,190 L215,190" fill="none" stroke="#222" stroke-width="1.6"/><path d="M210,195 L215,195" fill="none" stroke="#222" stroke-width="1.6"/><path d="M210,200 L215,200" fill="none" stroke="#222" stroke-width="1.6"/><text x="140" y="255" font-size="17" fill="#111">甲</text></g></svg>