<svg xmlns="http://www.w3.org/2000/svg" width="410" height="280" viewBox="0 0 410 280"><rect width="100%" height="100%" fill="white"/><g font-family="Microsoft YaHei,SimSun,serif"><path d="M55,225 L355,225" fill="none" stroke="#222" stroke-width="1.6"/><path d="M55,225 L55,45" fill="none" stroke="#222" stroke-width="1.6"/><text x="353" y="248" font-size="17" fill="#111">L/cm</text><text x="35" y="36" font-size="17" fill="#111">F/N</text><text x="36" y="246" font-size="17" fill="#111">O</text><path d="M55,225 L55,45" fill="none" stroke="#222" stroke-width="1.6"/><path d="M80,225 L80,45" fill="none" stroke="#222" stroke-width="1.6"/><path d="M105,225 L105,45" fill="none" stroke="#222" stroke-width="1.6"/><path d="M130,225 L130,45" fill="none" stroke="#222" stroke-width="1.6"/><path d="M155,225 L155,45" fill="none" stroke="#222" stroke-width="1.6"/><path d="M180,225 L180,45" fill="none" stroke="#222" stroke-width="1.6"/><path d="M205,225 L205,45" fill="none" stroke="#222" stroke-width="1.6"/><path d="M230,225 L230,45" fill="none" stroke="#222" stroke-width="1.6"/><path d="M255,225 L255,45" fill="none" stroke="#222" stroke-width="1.6"/><path d="M280,225 L280,45" fill="none" stroke="#222" stroke-width="1.6"/><path d="M305,225 L305,45" fill="none" stroke="#222" stroke-width="1.6"/><path d="M55,225 L305,225" fill="none" stroke="#222" stroke-width="1.6"/><text x="20" y="230" font-size="17" fill="#111">0</text><path d="M55,189 L305,189" fill="none" stroke="#222" stroke-width="1.6"/><text x="20" y="194" font-size="17" fill="#111">2</text><path d="M55,153 L305,153" fill="none" stroke="#222" stroke-width="1.6"/><text x="20" y="158" font-size="17" fill="#111">4</text><path d="M55,117 L305,117" fill="none" stroke="#222" stroke-width="1.6"/><text x="20" y="122" font-size="17" fill="#111">6</text><path d="M55,81 L305,81" fill="none" stroke="#222" stroke-width="1.6"/><text x="20" y="86" font-size="17" fill="#111">8</text><path d="M55,45 L305,45" fill="none" stroke="#222" stroke-width="1.6"/><text x="20" y="50" font-size="17" fill="#111">10</text><text x="95" y="250" font-size="17" fill="#111">10</text><text x="145" y="250" font-size="17" fill="#111">20</text><text x="195" y="250" font-size="17" fill="#111">30</text><text x="245" y="250" font-size="17" fill="#111">40</text><text x="295" y="250" font-size="17" fill="#111">50</text><path d="M105,225 L205,81" fill="none" stroke="#222" stroke-width="1.6"/><circle cx="130" cy="189" r="3.5" fill="#111"/><circle cx="155" cy="153" r="3.5" fill="#111"/><circle cx="180" cy="117" r="3.5" fill="#111"/><circle cx="205" cy="81" r="3.5" fill="#111"/></g></svg>